<svg xmlns="http://www.w3.org/2000/svg" viewBox="0 0 96.88 96.88"><defs><style>.cls-1{fill:#fff;}</style></defs><title>1</title><g id="Слой_2" data-name="Слой 2"><g id="Слой_1-2" data-name="Слой 1"><path class="cls-1" d="M96.88,96.88H0V0H96.88ZM1.83,95.06H95.06V1.83H1.83Z"/><path class="cls-1" d="M73.79,89.44A20.44,20.44,0,0,1,63,86.69a17,17,0,0,1-6.35-6.88L56.3,79l8.78-5.1.47.76a11.42,11.42,0,0,0,3.21,3.61,8.27,8.27,0,0,0,4.82,1.38,6.48,6.48,0,0,0,3.88-1.06,3,3,0,0,0,1.27-2.43,3.15,3.15,0,0,0-1.37-2.73,23.06,23.06,0,0,0-4.58-2.36l-2.23-1c-3.81-1.62-6.31-3.25-8.1-5.27a13,13,0,0,1-3.18-9,12.22,12.22,0,0,1,3.84-9.08,14.58,14.58,0,0,1,10.16-3.63,16,16,0,0,1,7.82,1.75,14.59,14.59,0,0,1,5.68,5.87l.43.75L78.69,57l-.47-.85A7.25,7.25,0,0,0,76,53.49a4.78,4.78,0,0,0-2.76-.73,3.59,3.59,0,0,0-2.5.86,2.72,2.72,0,0,0-.86,2.05,2.94,2.94,0,0,0,1,2.42,15,15,0,0,0,3.93,2.17l2.23,1c4.46,1.91,7.18,3.6,9.09,5.66a12.7,12.7,0,0,1,3.34,9.21,12.25,12.25,0,0,1-4.56,10C82.14,88.26,78.29,89.44,73.79,89.44Zm-15.05-9.7A14.88,14.88,0,0,0,64,85.12a18.66,18.66,0,0,0,9.79,2.49,15.88,15.88,0,0,0,10-3,10.49,10.49,0,0,0,3.88-8.53,11,11,0,0,0-2.85-8c-1.73-1.85-4.26-3.42-8.48-5.22l-2.23-1a16.18,16.18,0,0,1-4.44-2.5,4.76,4.76,0,0,1-1.61-3.77,4.57,4.57,0,0,1,1.45-3.4,5.38,5.38,0,0,1,3.74-1.34A6.62,6.62,0,0,1,77,52a8.06,8.06,0,0,1,2.28,2.43l5.42-3.48a12.34,12.34,0,0,0-4.52-4.42A14.25,14.25,0,0,0,73.26,45a12.78,12.78,0,0,0-8.91,3.14,10.41,10.41,0,0,0-3.26,7.74,11.24,11.24,0,0,0,2.72,7.82c1.6,1.8,3.9,3.28,7.45,4.8l2.24,1a24.07,24.07,0,0,1,5,2.6,5,5,0,0,1,2.07,4.16,4.78,4.78,0,0,1-2,3.9,8.27,8.27,0,0,1-5,1.42,10,10,0,0,1-5.86-1.7,12.33,12.33,0,0,1-3.25-3.41ZM39.34,89.43a15.94,15.94,0,0,1-9.1-2.57,14.92,14.92,0,0,1-5.12-6.12L24.77,80l8.78-5.32.46.82a12.84,12.84,0,0,0,2.08,3A3.86,3.86,0,0,0,39,79.63a3.8,3.8,0,0,0,2.84-.86c.69-.71,1-2,1-3.84V43.65H53.59V75.05c0,4.72-1.34,8.37-4,10.86C47.17,88.21,43.62,89.43,39.34,89.43ZM27.14,80.7a12.9,12.9,0,0,0,4.12,4.65,14.15,14.15,0,0,0,8.08,2.25c3.86,0,6.89-1,9-3s3.41-5.34,3.41-9.53V45.47h-7.1V74.93c0,2.38-.51,4.05-1.55,5.12A5.45,5.45,0,0,1,39,81.46a5.71,5.71,0,0,1-4.13-1.62,11.8,11.8,0,0,1-1.95-2.63Z"/></g></g></svg>