<svg xmlns="http://www.w3.org/2000/svg" viewBox="0 0 93.41 92.77"><defs><style>.cls-1{fill:#fff;}</style></defs><title>2</title><g id="Слой_2" data-name="Слой 2"><g id="Слой_1-2" data-name="Слой 1"><path class="cls-1" d="M80.63,74H12.78A12.78,12.78,0,0,1,0,61.26V12.78A12.78,12.78,0,0,1,12.78,0H80.63A12.78,12.78,0,0,1,93.41,12.78V61.26A12.77,12.77,0,0,1,80.63,74ZM12.78,1.83a11,11,0,0,0-11,11V61.26a10.95,10.95,0,0,0,11,11H80.63a10.95,10.95,0,0,0,11-11V12.78a10.95,10.95,0,0,0-11-11Z"/><polygon class="cls-1" points="32.9 51.9 19.09 38.09 32.9 24.29 34.19 25.58 21.67 38.09 34.19 50.61 32.9 51.9"/><polygon class="cls-1" points="60.51 51.9 59.22 50.61 71.73 38.09 59.22 25.58 60.51 24.29 74.32 38.09 60.51 51.9"/><rect class="cls-1" x="31.95" y="37.18" width="29.5" height="1.83" transform="translate(-8.4 62.49) rotate(-63.08)"/><path class="cls-1" d="M77.58,92.77H15.82V90.59A8.15,8.15,0,0,1,24,82.44H69.44a8.15,8.15,0,0,1,8.15,8.15ZM17.65,90.94H75.76v-.36a6.32,6.32,0,0,0-6.32-6.32H24a6.32,6.32,0,0,0-6.32,6.32Z"/><path class="cls-1" d="M80.15,68H13.26a7.64,7.64,0,0,1-7.63-7.63V13.69a7.64,7.64,0,0,1,7.63-7.63H80.15a7.63,7.63,0,0,1,7.63,7.63V60.34A7.63,7.63,0,0,1,80.15,68ZM13.26,7.89a5.81,5.81,0,0,0-5.81,5.81V60.34a5.81,5.81,0,0,0,5.81,5.81H80.15A5.81,5.81,0,0,0,86,60.34V13.69a5.81,5.81,0,0,0-5.8-5.81Z"/></g></g></svg>