<svg xmlns="http://www.w3.org/2000/svg" viewBox="0 0 81.72 97.67"><defs><style>.cls-1{fill:#fff;}</style></defs><title>3</title><g id="Слой_2" data-name="Слой 2"><g id="Слой_1-2" data-name="Слой 1"><path class="cls-1" d="M50.84,97.67a6.9,6.9,0,0,1-6.9-6.91V77.7H37.78V90.76a6.86,6.86,0,0,1-2,4.89,7.08,7.08,0,0,1-9.77,0,6.86,6.86,0,0,1-2-4.89V77.7H20.89A4.92,4.92,0,0,1,16,72.79V31.93H65.74V72.79a4.92,4.92,0,0,1-4.91,4.91H57.75V90.76a6.9,6.9,0,0,1-6.91,6.91ZM36,75.87h9.82v14.9a5,5,0,0,0,1.49,3.59,5.21,5.21,0,0,0,7.19,0,5.05,5.05,0,0,0,1.49-3.59V75.87h4.91a3.09,3.09,0,0,0,3.08-3.08v-39H17.81v39a3.09,3.09,0,0,0,3.08,3.08H25.8v14.9a5,5,0,0,0,1.48,3.59,5.21,5.21,0,0,0,7.19,0A5,5,0,0,0,36,90.76ZM74.81,73.7a6.9,6.9,0,0,1-6.9-6.91v-28a6.86,6.86,0,0,1,2-4.88,7.09,7.09,0,0,1,9.77,0,6.86,6.86,0,0,1,2,4.88v28a6.9,6.9,0,0,1-6.91,6.91Zm0-39.95a5.07,5.07,0,0,0-5.08,5.08v28a5,5,0,0,0,1.49,3.59,5.21,5.21,0,0,0,7.19,0,5,5,0,0,0,1.49-3.59v-28a5.07,5.07,0,0,0-5.08-5.08ZM6.9,73.7A6.9,6.9,0,0,1,0,66.8v-28a6.86,6.86,0,0,1,2-4.88,7.08,7.08,0,0,1,9.77,0,6.86,6.86,0,0,1,2,4.88v28A6.9,6.9,0,0,1,6.9,73.7Zm0-39.95a5.07,5.07,0,0,0-5.08,5.08v28a5,5,0,0,0,1.48,3.59,5.21,5.21,0,0,0,7.19,0A5,5,0,0,0,12,66.8v-28A5.07,5.07,0,0,0,6.9,33.76Zm58.84-4H16v-.91a24.53,24.53,0,0,1,2.78-11.42,25.18,25.18,0,0,1,6.54-8L20.8,5a2.89,2.89,0,0,1,0-4.13,3,3,0,0,1,4.13,0l5.49,5.45a24.9,24.9,0,0,1,4.68-1.64A24.31,24.31,0,0,1,51.22,6.29L56.67.84a3,3,0,0,1,4.13,0A2.89,2.89,0,0,1,60.8,5L56.35,9.42a24.74,24.74,0,0,1,9.39,19.43ZM17.82,27.93H63.89a22.6,22.6,0,0,0-2.57-9.68,23.19,23.19,0,0,0-6.91-8l-.87-.63,5.95-5.95A1.09,1.09,0,1,0,58,2.13L51.58,8.51,51,8.21A22.46,22.46,0,0,0,35.52,6.43a22.89,22.89,0,0,0-4.88,1.79l-.59.29L23.64,2.13a1.09,1.09,0,1,0-1.55,1.54l6,6-.86.63a23.38,23.38,0,0,0-6.84,8A22.68,22.68,0,0,0,17.82,27.93Z"/></g></g></svg>