<svg xmlns="http://www.w3.org/2000/svg" viewBox="0 0 96.88 44.08"><defs><style>.cls-1{fill:#fff;}</style></defs><title>4</title><g id="Слой_2" data-name="Слой 2"><g id="Слой_1-2" data-name="Слой 1"><path class="cls-1" d="M74.85,44.08a22,22,0,0,1-11.16-3,22.23,22.23,0,0,1-7.63-7.52H40.83A22,22,0,0,1,22,44.08,22,22,0,0,1,6.46,6.45,21.89,21.89,0,0,1,22,0H74.85A22,22,0,0,1,90.43,37.62,21.9,21.9,0,0,1,74.85,44.08ZM39.79,31.68H57.1l.26.46a20.38,20.38,0,0,0,7.25,7.32A20.21,20.21,0,0,0,89.14,7.75,20.08,20.08,0,0,0,74.85,1.83H22A20.21,20.21,0,0,0,7.75,36.33a20.19,20.19,0,0,0,24.52,3.13,20.36,20.36,0,0,0,7.25-7.32Z"/><path class="cls-1" d="M26.47,33.51H17.6v-7h-7V17.6h7v-7h8.87v7h7v8.87h-7Zm-7-1.83h5.21v-7h7V19.43h-7v-7H19.43v7h-7v5.21h7Z"/><path class="cls-1" d="M67.81,26.47a4.43,4.43,0,0,1-3.13-7.57,4.54,4.54,0,0,1,6.27,0,4.44,4.44,0,0,1-3.14,7.57Zm0-7A2.61,2.61,0,0,0,66,23.88a2.67,2.67,0,0,0,3.69,0,2.61,2.61,0,0,0-1.84-4.45Z"/><path class="cls-1" d="M78.37,15a3.52,3.52,0,1,1-1-2.49A3.51,3.51,0,0,1,78.37,15Z"/><path class="cls-1" d="M74.85,19.43a4.43,4.43,0,0,1-3.13-7.57,4.55,4.55,0,0,1,6.27,0,4.43,4.43,0,0,1-3.14,7.57Zm0-7A2.61,2.61,0,0,0,73,16.84a2.67,2.67,0,0,0,3.69,0,2.61,2.61,0,0,0-1.84-4.45Z"/><path class="cls-1" d="M85.41,22a3.52,3.52,0,1,0-1,2.49A3.51,3.51,0,0,0,85.41,22Z"/><path class="cls-1" d="M81.89,26.47a4.44,4.44,0,0,1-3.14-7.57,4.54,4.54,0,0,1,6.27,0,4.44,4.44,0,0,1-3.13,7.57Zm0-7A2.61,2.61,0,0,0,80,23.88a2.67,2.67,0,0,0,3.69,0,2.61,2.61,0,0,0-1.84-4.45Z"/><path class="cls-1" d="M74.85,33.51a4.43,4.43,0,0,1-3.13-7.57,4.55,4.55,0,0,1,6.27,0,4.44,4.44,0,0,1-3.14,7.57Zm0-7A2.6,2.6,0,0,0,73,30.92a2.66,2.66,0,0,0,3.69,0,2.61,2.61,0,0,0-1.84-4.45Z"/></g></g></svg>