<svg xmlns="http://www.w3.org/2000/svg" viewBox="0 0 83.4 83.4"><defs><style>.cls-1{fill:#fff;}</style></defs><title>5</title><g id="Слой_2" data-name="Слой 2"><g id="Слой_1-2" data-name="Слой 1"><rect class="cls-1" x="64.23" y="6.62" width="1.83" height="9.51" transform="translate(11.04 49.4) rotate(-45)"/><rect class="cls-1" x="57.51" y="13.34" width="1.83" height="9.51" transform="translate(4.32 46.61) rotate(-45)"/><rect class="cls-1" x="50.79" y="20.06" width="1.83" height="9.51" transform="translate(-2.4 43.84) rotate(-45.01)"/><rect class="cls-1" x="23.9" y="46.95" width="1.83" height="9.51" transform="translate(-29.29 32.69) rotate(-45)"/><rect class="cls-1" x="17.18" y="53.67" width="1.83" height="9.51" transform="translate(-36.02 29.92) rotate(-45.01)"/><rect class="cls-1" x="10.46" y="60.39" width="1.83" height="9.51" transform="translate(-42.73 27.12) rotate(-45)"/><path class="cls-1" d="M14.73,29.47l-8-8L21.46,6.72l8,8Zm-5.43-8,5.43,5.43L26.89,14.74,21.46,9.31Z"/><path class="cls-1" d="M83.4,83.4,61.14,75.88,41.62,56.36,14.74,83.24,0,68.51,26.89,41.62,0,14.74,14.74,0,41.62,26.89,68.51,0,83.24,14.74,56.36,41.62,76.1,61.5ZM2.58,68.51,14.74,80.66,41.62,53.77,62.28,74.43l18.22,6.07L74.43,62.28,53.77,41.62,80.66,14.74,68.51,2.58,41.62,29.47,14.74,2.58,2.58,14.74,29.47,41.62Z"/><polygon class="cls-1" points="81.95 81.95 80.27 76.91 78.59 71.87 75.23 75.23 71.87 78.59 76.91 80.27 81.95 81.95"/><path class="cls-1" d="M83.39,83.4,70.18,79,79,70.18Zm-9.83-5.21,6.94,2.32-2.32-6.95Z"/><rect class="cls-1" x="59" y="67.59" width="19.01" height="1.83" transform="translate(-28.38 68.51) rotate(-45)"/></g></g></svg>