<svg xmlns="http://www.w3.org/2000/svg" viewBox="0 0 78.73 97.24"><defs><style>.cls-1{fill:#fff;}</style></defs><title>6</title><g id="Слой_2" data-name="Слой 2"><g id="Слой_1-2" data-name="Слой 1"><path class="cls-1" d="M39.37,33.46a10.4,10.4,0,1,1,7.36-3A10.33,10.33,0,0,1,39.37,33.46Zm0-19A8.58,8.58,0,0,0,33.3,29.12a8.79,8.79,0,0,0,12.13,0,8.58,8.58,0,0,0-6.06-14.64Z"/><path class="cls-1" d="M69,85.67l-31.2-54h1.58a8.54,8.54,0,0,0,5.46-2l.83-.69L67.9,67.68ZM40.89,33.35,66.69,78l-.6-10-21-36.29A10.35,10.35,0,0,1,43,32.83,10.23,10.23,0,0,1,40.89,33.35Z"/><path class="cls-1" d="M9.75,85.67,11,67.28,33.07,29l.83.69a8.54,8.54,0,0,0,5.46,2h1.58ZM12.64,68,12,78l25.81-44.7a10.23,10.23,0,0,1-2.07-.52,10.35,10.35,0,0,1-2.18-1.11Z"/><path class="cls-1" d="M43.44,15.41,42.22,15a8.82,8.82,0,0,0-1.39-.37,8.42,8.42,0,0,0-2.93,0,8.9,8.9,0,0,0-1.39.37l-1.22.43V0h8.15ZM37.12,1.83V12.9l.46-.09a10.19,10.19,0,0,1,3.58,0l.46.09V1.83Z"/><rect class="cls-1" x="38.45" y="83.26" width="1.83" height="12.69"/><rect class="cls-1" x="3.81" y="58.55" width="4.49" height="1.83" transform="translate(-40.27 21.69) rotate(-45)"/><rect class="cls-1" x="6.98" y="61.72" width="4.49" height="1.83" transform="translate(-41.59 24.87) rotate(-45)"/><rect class="cls-1" x="16.5" y="71.24" width="4.49" height="1.83" transform="translate(-45.53 34.39) rotate(-45)"/><rect class="cls-1" x="19.67" y="74.41" width="4.49" height="1.83" transform="translate(-46.84 37.56) rotate(-45)"/><rect class="cls-1" x="22.84" y="77.58" width="4.49" height="1.83" transform="translate(-48.16 40.73) rotate(-45)"/><rect class="cls-1" x="26.02" y="80.76" width="4.49" height="1.83" transform="translate(-49.47 43.9) rotate(-45)"/><rect class="cls-1" x="29.19" y="83.93" width="4.49" height="1.83" transform="translate(-50.79 47.08) rotate(-45)"/><rect class="cls-1" x="32.36" y="87.1" width="4.49" height="1.83" transform="translate(-52.1 50.25) rotate(-45)"/><path class="cls-1" d="M66.23,70.38,66.09,68l-4.67-8.09,9.68-9.68,7.64,7.64ZM63.7,60.21l3.7,6.41,8.75-8.75L71.1,52.82Z"/><path class="cls-1" d="M12.51,70.38,0,57.87l7.64-7.64,9.68,9.68-4.68,8.15ZM2.58,57.87l8.75,8.75L15,60.21,7.64,52.82Z"/><path class="cls-1" d="M39.37,97.24,15,72.89l5.59-9.69L39.37,82,58.12,63.21l5.59,9.69ZM17.3,72.59,39.37,94.65,61.43,72.59l-3.7-6.41L39.37,84.55,21,66.18Z"/><path class="cls-1" d="M39.37,27.13a4.08,4.08,0,0,1-2.88-7,4.18,4.18,0,0,1,5.77,0,4.08,4.08,0,0,1-2.88,7Zm0-6.33a2.25,2.25,0,0,0-1.59,3.84,2.31,2.31,0,0,0,3.18,0,2.25,2.25,0,0,0-1.59-3.84Z"/></g></g></svg>