<svg xmlns="http://www.w3.org/2000/svg" viewBox="0 0 91.5 91.5"><defs><style>.cls-1{fill:#fff;}</style></defs><title>avatar</title><g id="Слой_2" data-name="Слой 2"><g id="Слой_1-2" data-name="Слой 1"><path class="cls-1" d="M91.5,45.75A45.75,45.75,0,1,0,16.62,81h0l.17.13.69.55c.36.28.73.52,1.1.79.65.48,1.28,1,2,1.41.87.58,1.76,1.1,2.66,1.62q.75.43,1.53.83c1,.51,2,1,3,1.43.36.16.73.29,1.09.43,1,.38,1.92.74,2.9,1.06l1.22.37q1.45.42,2.92.75l1.3.27c1,.19,2,.35,3.08.47.41,0,.81.11,1.22.15,1.43.13,2.88.22,4.34.22s2.9-.09,4.34-.22c.41,0,.81-.1,1.22-.15,1-.12,2.06-.28,3.08-.47l1.3-.27q1.48-.33,2.92-.75l1.22-.37c1-.32,1.94-.68,2.9-1.06.36-.15.73-.28,1.09-.43,1-.44,2-.92,3-1.43q.77-.4,1.53-.83c.9-.51,1.79-1,2.66-1.62.67-.44,1.31-.93,2-1.41.36-.27.74-.51,1.1-.79l.69-.55.17-.13h0A45.67,45.67,0,0,0,91.5,45.75ZM71.2,80.59A43.75,43.75,0,0,1,65.85,84l-.68.33A42.52,42.52,0,0,1,60,86.48c-.34.12-.67.26-1,.37a42.43,42.43,0,0,1-5.71,1.4c-.47.08-.94.15-1.42.22a43.49,43.49,0,0,1-6.14.49,43.49,43.49,0,0,1-6.14-.49c-.47-.07-.95-.13-1.42-.22a42.43,42.43,0,0,1-5.71-1.4c-.34-.11-.67-.25-1-.37a42.52,42.52,0,0,1-5.15-2.19L25.65,84a43.75,43.75,0,0,1-5.35-3.38L20,80.34a30.44,30.44,0,0,1,51.56,0Zm2.3-1.77a33.15,33.15,0,0,0-20-14.3,20.33,20.33,0,1,0-15.54,0,33.15,33.15,0,0,0-20,14.3,43.21,43.21,0,1,1,55.51,0ZM45.75,63.54A17.79,17.79,0,1,1,63.54,45.75,17.81,17.81,0,0,1,45.75,63.54Z"/></g></g></svg>