<svg xmlns="http://www.w3.org/2000/svg" viewBox="0 0 24 10.87"><defs><style>.cls-1{fill:#fff;}</style></defs><title>B12Logo</title><g id="Слой_2" data-name="Слой 2"><g id="Слой_1-2" data-name="Слой 1"><path class="cls-1" d="M7.18,6.15a1.79,1.79,0,0,0-.6-.38,3,3,0,0,0-1.33-.13H3.76V9.26H5.09c1.24,0,1.41,0,1.84-.3a1.76,1.76,0,0,0,.73-1.49,1.85,1.85,0,0,0-.47-1.32m-.3-4.61a1.22,1.22,0,0,0-.6-.34A4.44,4.44,0,0,0,5,1.11H3.76V4.44H5.22a3.65,3.65,0,0,0,1.37-.21,1.53,1.53,0,0,0,.77-1.45,1.71,1.71,0,0,0-.47-1.24M9.53,9.18a2.23,2.23,0,0,1-.81.85,3,3,0,0,1-1.2.38H0V9.31H.85a1.92,1.92,0,0,0,.56,0A.51.51,0,0,0,1.62,9a1,1,0,0,0,.09-.34v-7a1,1,0,0,0-.09-.34c-.13-.21-.3-.3-.77-.3H0V0H6.07A4.72,4.72,0,0,1,8.68.73a2.27,2.27,0,0,1,1,1.92,2,2,0,0,1-.73,1.66A3,3,0,0,1,7.61,5a3.57,3.57,0,0,1,1.33.51,2.43,2.43,0,0,1,1,2.14,3.75,3.75,0,0,1-.43,1.54m.92,1.24V9.28h1a1.7,1.7,0,0,0,.53,0A.44.44,0,0,0,12.15,9a.81.81,0,0,0,.09-.35V3.81H10.42v-1c1.47,0,2-.31,2.32-1.4h1.38V8.67A1.32,1.32,0,0,0,14.2,9c.09.22.27.26.76.26h.89v1.14ZM23.83,8.83a2.11,2.11,0,0,1-2.28,2A6.17,6.17,0,0,1,18.84,10,1.66,1.66,0,0,0,18,9.74a.65.65,0,0,0-.69.74v.22h-1v-.35a3.89,3.89,0,0,1,.3-1.56,3.68,3.68,0,0,1,2.19-2c.56-.3,1-.48,1.2-.61a4.34,4.34,0,0,0,.86-.61,1.94,1.94,0,0,0,.52-1.26c0-1-.73-1.69-2-1.69-1,0-1.63.39-1.85,1.22a.65.65,0,0,1,.52-.26,1,1,0,0,1,1,1.09,1.12,1.12,0,0,1-1.16,1.22,1.48,1.48,0,0,1-1.46-1.65,2.52,2.52,0,0,1,.95-2A3.45,3.45,0,0,1,20,1.36c2.15,0,3.57,1.22,3.57,3,0,1.48-.82,2.3-2.8,2.87s-2,.56-2.67,1.08a1.51,1.51,0,0,0-.56.91,1.87,1.87,0,0,1,1.42-.52,2.45,2.45,0,0,1,.56,0L20.77,9a5.81,5.81,0,0,0,.82.09c1,0,1.42-.43,1.46-1.61H24c-.09.69-.09.91-.17,1.39"/></g></g></svg>