<svg xmlns="http://www.w3.org/2000/svg" viewBox="0 0 554.93 161.58"><defs><style>.cls-1{fill:#fff;}</style></defs><title>collibricon</title><g id="Слой_2" data-name="Слой 2"><g id="Layer_1" data-name="Layer 1"><path class="cls-1" d="M281.28,70.6V66.24a19,19,0,0,0-7.64-1.46A16.88,16.88,0,0,0,266,66.24a23.91,23.91,0,0,0-6.19,4.37,20.65,20.65,0,0,0-4.37,6.55A19,19,0,0,0,254,84.8a17.9,17.9,0,0,0,1.46,7.64A25.73,25.73,0,0,0,259.81,99a23.91,23.91,0,0,0,6.19,4.37,19,19,0,0,0,7.64,1.46,18,18,0,0,0,9.82-2.55l3.27,4.73a31.48,31.48,0,0,1-6.19,2.55,21.19,21.19,0,0,1-6.91,1.09,24.42,24.42,0,0,1-10.19-2.18,33.22,33.22,0,0,1-8.37-5.46,22.3,22.3,0,0,1-5.46-8.37,24.87,24.87,0,0,1,0-20.38,33.22,33.22,0,0,1,5.46-8.37,22.3,22.3,0,0,1,8.37-5.46,24.42,24.42,0,0,1,10.19-2.18,21.19,21.19,0,0,1,6.91,1.09,31.48,31.48,0,0,1,6.19,2.55v8h-5.46Z"/><path class="cls-1" d="M299.48,84.8a24.42,24.42,0,0,1,2.18-10.19,33.22,33.22,0,0,1,5.46-8.37,18.67,18.67,0,0,1,8.37-5.46,24.87,24.87,0,0,1,20.38,0,33.22,33.22,0,0,1,8.37,5.46,22.3,22.3,0,0,1,5.46,8.37c1.09,3.27,2.18,6.55,2.18,10.19A24.42,24.42,0,0,1,349.69,95a33.22,33.22,0,0,1-5.46,8.37c-2.55,2.18-5.09,4.37-8.37,5.46S329.32,111,325.68,111a24.42,24.42,0,0,1-10.19-2.18,33.22,33.22,0,0,1-8.37-5.46A22.3,22.3,0,0,1,301.66,95C299.84,91.71,299.48,88.43,299.48,84.8Zm5.82,0a16.88,16.88,0,0,0,1.46,7.64,19,19,0,0,0,4.37,6.19,23.91,23.91,0,0,0,6.19,4.37,19,19,0,0,0,7.64,1.46,16.88,16.88,0,0,0,7.64-1.46,19,19,0,0,0,6.19-4.37,23.91,23.91,0,0,0,4.37-6.19,19,19,0,0,0,1.46-7.64,16.88,16.88,0,0,0-1.46-7.64,25.73,25.73,0,0,0-4.37-6.55,23.91,23.91,0,0,0-6.19-4.37A17.9,17.9,0,0,0,325,64.78a16.88,16.88,0,0,0-7.64,1.46,19,19,0,0,0-6.19,4.37,20.65,20.65,0,0,0-4.37,6.55A25.9,25.9,0,0,0,305.3,84.8Z"/><path class="cls-1" d="M363.52,104.45h4V65.15h-4V59.32h16v5.82h-6.19v39.3h20.38V99h5.82v11.28H363.16v-5.82Z"/><path class="cls-1" d="M412.28,104.45h5.82V65.15h-5.82V59.32h17.47v5.82h-5.82v39.3h5.82v5.82H412.28Z"/><path class="cls-1" d="M442.12,104.45h3.27V65.15h-3.27V59.32H458.5a36.05,36.05,0,0,1,6.55.73,12.76,12.76,0,0,1,5.09,2.18,8.9,8.9,0,0,1,3.27,4,13.86,13.86,0,0,1,1.09,5.82,15.58,15.58,0,0,1-2.18,8,12.82,12.82,0,0,1-6.55,4.73,17.74,17.74,0,0,1,4,1.46,7.92,7.92,0,0,1,3.27,2.55,7.55,7.55,0,0,1,2.18,3.64,10,10,0,0,1,.73,4.73,10.68,10.68,0,0,1-1.46,5.82,19.07,19.07,0,0,1-3.64,4,22.23,22.23,0,0,1-5.09,2.55,17,17,0,0,1-6.19.73H441.76v-5.82Zm9.1-39.3V81.88h8a9.06,9.06,0,0,0,6.91-2.55,7.5,7.5,0,0,0,2.55-6.19c0-2.91-.73-4.73-2.55-6.19a12.94,12.94,0,0,0-6.91-1.82Zm0,22.2v17.1h8a17.72,17.72,0,0,0,4.37-.36,6.86,6.86,0,0,0,3.27-1.46,4.89,4.89,0,0,0,2.18-2.55,6,6,0,0,0,.73-3.64,7.34,7.34,0,0,0-1.09-4,5.73,5.73,0,0,0-2.55-2.55,10.9,10.9,0,0,0-3.64-1.46,17.72,17.72,0,0,0-4.37-.36h-6.91Z"/><path class="cls-1" d="M488.34,104.45h3.27V65.15h-3.27V59.32h15.28a28.09,28.09,0,0,1,5.46.73,12.66,12.66,0,0,1,5.46,2.55A12.54,12.54,0,0,1,518.9,67a12.27,12.27,0,0,1,1.82,6.19,17.81,17.81,0,0,1-2.55,9.1c-1.82,2.55-4.37,4-8,4.73l8,17.47h6.91v5.82H514.54L504,87.71H497.8v16.74h8.37v5.82H488.7v-5.82Zm9.46-22.56H504a16.87,16.87,0,0,0,5.09-.73c1.46-.73,2.55-1.09,3.27-2.18a7.92,7.92,0,0,0,1.82-2.91,8,8,0,0,0,.36-2.91,6.86,6.86,0,0,0-.73-2.91,15.82,15.82,0,0,0-2.18-2.55,14.75,14.75,0,0,0-3.27-1.82,18.26,18.26,0,0,0-4.37-.73H497.8Z"/><path class="cls-1" d="M537.46,104.45h5.82V65.15h-5.82V59.32h17.47v5.82H549.1v39.3h5.82v5.82H537.46Z"/><path class="cls-1" d="M254.72,158.3v-3.64h2.55v2.55a8,8,0,0,0,1.82,1.09,5.4,5.4,0,0,0,2.55.36,2.19,2.19,0,0,0,1.46-.36c.36,0,.73-.36,1.46-.73.36-.36.73-.73.73-1.09s.36-1.09.36-1.46a5.26,5.26,0,0,0-.73-2.55,3.63,3.63,0,0,0-1.82-1.46,5.17,5.17,0,0,0-2.18-.73,5.17,5.17,0,0,1-2.18-.73,7.94,7.94,0,0,1-1.82-1.46,6.86,6.86,0,0,1-.73-2.91,2.73,2.73,0,0,1,.36-1.82,4.85,4.85,0,0,1,1.09-1.82,7.94,7.94,0,0,1,1.82-1.46,7.09,7.09,0,0,1,2.91-.36h1.09a2.75,2.75,0,0,1,1.46.36c.36,0,1.09.36,1.46.36.36.36,1.09.73,1.46,1.09v2.91h-2.55v-1.82c-.36,0-.73-.36-1.46-.36H262a2.83,2.83,0,0,0-2.55,1.09,2.67,2.67,0,0,0-.73,2.18c0,.73,0,1.09.36,1.46l1.09,1.09c.36.36,1.09.36,1.46.73.73,0,1.09.36,1.82.73s1.09.36,1.82.73a5,5,0,0,1,1.46,1.09,8,8,0,0,1,1.09,1.82,5.4,5.4,0,0,1,.36,2.55,6.19,6.19,0,0,1-.36,2.55,3.63,3.63,0,0,1-1.46,1.82c-.73.36-1.09.73-1.82,1.09a5.4,5.4,0,0,1-2.55.36,4.62,4.62,0,0,1-2.18-.36,2.78,2.78,0,0,1-1.82-.73,5,5,0,0,1-1.46-1.09C256.18,159,255.08,158.66,254.72,158.3Z"/><path class="cls-1" d="M312.94,158.66h2.55V142.29h-4.73v2.18h-2.18v-4.73h16.74v4.73h-2.55v-2.18H318v16.37h2.18v2.55h-7.28Z"/><path class="cls-1" d="M366.43,139.74h7.28v2.55h-2.55v11.64a4.62,4.62,0,0,0,.36,2.18,5,5,0,0,0,1.09,1.46c.36.36,1.09.73,1.46,1.09a6.73,6.73,0,0,0,4.37,0c.73-.36,1.09-.36,1.46-1.09s.73-.73,1.09-1.46a3.94,3.94,0,0,0,.36-2.18V142.29h-2.55v-2.55h7.28v2.55H383.9v12a6.86,6.86,0,0,1-.73,2.91c-.36.73-1.09,1.46-1.46,2.18a5.87,5.87,0,0,1-2.55,1.46,8,8,0,0,1-2.91.36,7.09,7.09,0,0,1-2.91-.36,5.86,5.86,0,0,1-2.55-1.46,7.61,7.61,0,0,1-1.46-2.18,6.86,6.86,0,0,1-.73-2.91v-12h-2.18v-2.55Z"/><path class="cls-1" d="M427.2,158.66h1.46V142.29H427.2v-2.55h6.19a13.08,13.08,0,0,1,4,.73,5.3,5.3,0,0,1,3.27,2.18,8.59,8.59,0,0,1,2.18,3.27,15.64,15.64,0,0,1,.73,4.37,12.93,12.93,0,0,1-.73,3.64,9.54,9.54,0,0,1-1.82,3.27,13.07,13.07,0,0,1-3.64,2.55,12.15,12.15,0,0,1-5.46,1.09h-5.46v-2.18Zm4-16.37v16.37h2.18a10.62,10.62,0,0,0,3.27-.73,15.82,15.82,0,0,0,2.55-1.46,6.53,6.53,0,0,0,1.82-2.55,7.73,7.73,0,0,0,0-6.55,6.53,6.53,0,0,0-1.82-2.55,9.12,9.12,0,0,0-2.55-1.46,10.63,10.63,0,0,0-3.27-.73h-2.18Z"/><path class="cls-1" d="M485.42,158.66H488V142.29h-2.55v-2.55h7.28v2.55h-2.55v16.37h2.55v2.55h-7.28Z"/><path class="cls-1" d="M533.82,150.3a13.08,13.08,0,0,1,.73-4,12.7,12.7,0,0,1,2.18-3.27,8.59,8.59,0,0,1,3.27-2.18,7.84,7.84,0,0,1,4-.73,13.08,13.08,0,0,1,4,.73,12.7,12.7,0,0,1,3.27,2.18,8.59,8.59,0,0,1,2.18,3.27,7.84,7.84,0,0,1,.73,4,13.08,13.08,0,0,1-.73,4,12.7,12.7,0,0,1-2.18,3.27,8.59,8.59,0,0,1-3.27,2.18,11.37,11.37,0,0,1-8,0,12.7,12.7,0,0,1-3.27-2.18,8.59,8.59,0,0,1-2.18-3.27A11.23,11.23,0,0,1,533.82,150.3Zm2.55,0a10.63,10.63,0,0,0,.73,3.27,9.52,9.52,0,0,0,4.37,4.37,7.73,7.73,0,0,0,6.55,0,9.52,9.52,0,0,0,4.37-4.37,7.73,7.73,0,0,0,0-6.55,9.52,9.52,0,0,0-4.37-4.37,7.73,7.73,0,0,0-6.55,0,6.53,6.53,0,0,0-2.55,1.82A11.06,11.06,0,0,0,537.1,147,10.62,10.62,0,0,0,536.37,150.3Z"/><path class="cls-1" d="M194.32,48.77a24,24,0,0,1-9.82.73h-.73c-1.09,0-2.18-.36-3.27-.36h0a55.52,55.52,0,0,0-14.19.73c-11.64.73-21.83,16.74-23.65,19.65-.73,0-1.46-.73-2.18-1.46-2.91-4.37-6.19-8.73-9.46-13.1-7.64-10.19-15.28-20.74-23.65-30.57-4-5.09-9.46-9.1-14.19-13.83C91,8.38,88.79,5.47,88.06,2.92c-1.09,2.18,0,4.73.73,6.91l-.36-.36V9.11s-9.1-9.46-12-9.1c-1.82.36-3.27,9.46-.73,21.47a18.26,18.26,0,0,0,.73,4.37c.36,1.46,1.09,2.55,1.46,4v.36h0c0,.36.36.73.36,1.09s0,.36.36.73v.36c0,.36.36.73.36,1.09a.36.36,0,0,0,.36.36c2.91,8,6.19,15.65,9.1,23.29.36,1.09.73,1.82,1.46,3.64C88.06,60.05,87,59.69,85.51,59c-16-6.55-31.66-13.83-47.67-19.65-8-2.91-17.1-3.64-25.84-5.82-2.91-.73-5.82-2.18-8.73-3.27,1.46,1.46,3.27,2.91,5.46,4.73l5.82,4L9.82,40h0c-3.27.73-2.91,2.55-1.09,4h0S44.39,93.89,85.15,97.9c0,0-25.11,18.19-32,21.11a93.42,93.42,0,0,1-15.65,6.19c-12.74,3.64-24.74,7.28-31.66,10.19a7.31,7.31,0,0,0-2.91,1.46A20.19,20.19,0,0,0,0,139s12.74,5.82,25.84,0c0,0-4.37,2.91-3.64,4.37h0s0,4,8.73-1.46a29.46,29.46,0,0,1,4.73-2.18c11.64-4.37,28.38-5.82,28-5.82h0a148.37,148.37,0,0,1,24.38-1.82H91.7c13.83-.36,63-4.73,81.51-44.39,6.55-9.82,13.83-22.92,17.47-29.47a46.06,46.06,0,0,0,2.55-4.37c7.28-5.09,39.3-14.56,39.3-14.56C226.34,37.85,202,45.86,194.32,48.77Z"/></g></g></svg>