<svg xmlns="http://www.w3.org/2000/svg" xmlns:xlink="http://www.w3.org/1999/xlink" viewBox="0 0 23.96 15.07"><defs><style>.cls-1{fill:none;}.cls-2{clip-path:url(#clip-path);}.cls-3{fill:#fff;}.cls-4{clip-path:url(#clip-path-3);}.cls-5{fill:#363072;}</style><clipPath id="clip-path" transform="translate(0 -0.03)"><rect class="cls-1" width="24.04" height="15.1"/></clipPath><clipPath id="clip-path-3" transform="translate(0 -0.03)"><rect class="cls-1" y="0.03" width="23.96" height="15.07"/></clipPath></defs><title>HighLogo</title><g id="Слой_2" data-name="Слой 2"><g id="Слой_1-2" data-name="Слой 1"><g class="cls-2"><g class="cls-2"><polyline class="cls-3" points="3.78 4.59 3.78 3.81 3.17 3.81 3.17 4.59 2.53 4.59 2.53 2.57 3.17 2.57 3.17 3.31 3.78 3.31 3.78 2.57 4.42 2.57 4.42 4.59 3.78 4.59"/><rect class="cls-3" x="4.89" y="2.57" width="0.64" height="2.03"/><path class="cls-3" d="M7.38,3.3A.36.36,0,0,0,7,3c-.37,0-.48.3-.48.58,0,.46.23.61.5.61a.35.35,0,0,0,.38-.28H7V3.5h.93V4.62H7.46V4.48a1,1,0,0,1-.61.2,1,1,0,0,1-1-1.05A1,1,0,0,1,6.94,2.51a1,1,0,0,1,1,.63l-.57.16" transform="translate(0 -0.03)"/><polyline class="cls-3" points="9.64 4.59 9.64 3.81 9.03 3.81 9.03 4.59 8.39 4.59 8.39 2.57 9.03 2.57 9.03 3.31 9.64 3.31 9.64 2.57 10.29 2.57 10.29 4.59 9.64 4.59"/><polyline class="cls-3" points="3.56 6.44 3.56 7.97 2.91 7.97 2.91 6.44 2.4 6.44 2.4 5.94 4.07 5.94 4.07 6.44 3.56 6.44"/><polyline class="cls-3" points="4.26 7.97 4.26 5.94 5.86 5.94 5.86 6.39 4.9 6.39 4.9 6.69 5.8 6.69 5.8 7.13 4.9 7.13 4.9 7.53 5.95 7.53 5.95 7.97 4.26 7.97"/><path class="cls-3" d="M8.18,7.48a1,1,0,0,1-1,.59A1,1,0,0,1,6.14,7,1,1,0,0,1,7.19,5.9a1.07,1.07,0,0,1,1,.57l-.54.27a.46.46,0,0,0-.42-.34c-.3,0-.43.27-.43.55,0,.47.22.6.43.6a.43.43,0,0,0,.41-.33l.55.26" transform="translate(0 -0.03)"/><polyline class="cls-3" points="9.71 7.97 9.71 7.19 9.1 7.19 9.1 7.97 8.46 7.97 8.46 5.94 9.1 5.94 9.1 6.68 9.71 6.68 9.71 5.94 10.36 5.94 10.36 7.97 9.71 7.97"/><polyline class="cls-3" points="12.09 7.97 11.42 6.81 11.42 7.97 10.82 7.97 10.82 5.94 11.5 5.94 12.18 7.09 12.18 5.94 12.78 5.94 12.78 7.97 12.09 7.97"/><path class="cls-3" d="M14.18,8.06A1,1,0,0,1,13.1,7a1.09,1.09,0,0,1,2.18,0,1,1,0,0,1-1.1,1.1m0-.51c.21,0,.44-.14.44-.6s-.22-.54-.44-.54-.45.2-.45.58S13.9,7.55,14.19,7.55Z" transform="translate(0 -0.03)"/><polyline class="cls-3" points="15.6 7.97 15.6 5.94 16.24 5.94 16.24 7.46 17.03 7.46 17.03 7.97 15.6 7.97"/><path class="cls-3" d="M18.22,8.06A1,1,0,0,1,17.14,7a1.09,1.09,0,0,1,2.18,0,1,1,0,0,1-1.1,1.1m0-.51c.21,0,.44-.14.44-.6s-.22-.54-.44-.54-.45.2-.45.58S17.94,7.55,18.23,7.55Z" transform="translate(0 -0.03)"/><path class="cls-3" d="M21.11,6.67a.36.36,0,0,0-.39-.3c-.37,0-.48.3-.48.58,0,.46.23.61.5.61a.35.35,0,0,0,.38-.28h-.38V6.88h.93V8h-.48V7.86a1,1,0,0,1-.61.2,1,1,0,0,1-1-1.05,1,1,0,0,1,1.08-1.11,1,1,0,0,1,1,.63l-.57.16" transform="translate(0 -0.03)"/><polyline class="cls-3" points="23.14 7.12 23.14 7.97 22.5 7.97 22.5 7.12 21.69 5.94 22.43 5.94 22.83 6.62 23.22 5.94 23.96 5.94 23.14 7.12"/><path class="cls-3" d="M3.74,9.35a.62.62,0,0,1,.69.66.65.65,0,0,1-.7.71H3.17v.66H2.53v-2H3.74m-.57.94h.36A.24.24,0,0,0,3.8,10a.24.24,0,0,0-.26-.26H3.17Z" transform="translate(0 -0.03)"/><path class="cls-3" d="M5.8,11.37l-.09-.28H5l-.09.28H4.22l.78-2h.73l.76,2H5.8M5.36,9.92l-.22.72h.44Z" transform="translate(0 -0.03)"/><path class="cls-3" d="M7.8,9.35c.34,0,.72.13.72.65a.55.55,0,0,1-.42.56l.5.82H7.88l-.39-.71H7.3v.71H6.66v-2H7.8m-.23.9c.13,0,.31,0,.31-.24s-.19-.24-.32-.24H7.3v.47Z" transform="translate(0 -0.03)"/><polyline class="cls-3" points="10.29 11.35 9.84 10.54 9.54 10.87 9.54 11.35 8.9 11.35 8.9 9.32 9.54 9.32 9.54 10.09 10.18 9.32 10.96 9.32 10.25 10.09 11.01 11.35 10.29 11.35"/><path class="cls-3" d="M2.48,14.13a.51.51,0,1,1,1,0,.51.51,0,1,1-1,0m.16,0a.35.35,0,1,0,.71,0,.35.35,0,1,0-.71,0Z" transform="translate(0 -0.03)"/><path class="cls-3" d="M3.8,14.62v-.85H3.67v-.14H3.8V13.5c0-.24,0-.53.36-.48v.14c-.23,0-.21.2-.21.34v.13h.2v.14H4v.85H3.8" transform="translate(0 -0.03)"/><polyline class="cls-3" points="5.27 13.75 5.27 14.6 5.12 14.6 5.12 13.75 4.97 13.75 4.97 13.61 5.12 13.61 5.12 13.22 5.27 13.22 5.27 13.61 5.49 13.61 5.49 13.75 5.27 13.75"/><path class="cls-3" d="M5.69,12.93h.15v.82a.43.43,0,0,1,.32-.13c.28,0,.4.13.4.44v.56H6.42v-.56c0-.2-.09-.29-.25-.29a.3.3,0,0,0-.32.33v.52H5.69V12.93" transform="translate(0 -0.03)"/><path class="cls-3" d="M7.8,14.2H6.95a.36.36,0,0,0,.35.3.34.34,0,0,0,.27-.14h.19a.51.51,0,0,1-.46.28.52.52,0,0,1-.51-.52.51.51,0,0,1,1,0v.07m-.86-.14h.7a.35.35,0,0,0-.7,0Z" transform="translate(0 -0.03)"/><polyline class="cls-3" points="8.73 13 8.9 13 8.9 13.75 9.59 13 9.8 13 9.16 13.7 9.93 14.6 9.72 14.6 9.05 13.82 8.9 14 8.9 14.6 8.73 14.6 8.73 13"/><polyline class="cls-3" points="10.28 15.05 10.1 15.05 10.38 14.49 9.94 13.61 10.12 13.61 10.47 14.31 10.82 13.61 10.99 13.61 10.56 14.49 10.28 15.05"/><g class="cls-4"><path class="cls-3" d="M11.3,13.77a.44.44,0,0,1,.33-.15v.15a.31.31,0,0,0-.33.31v.54h-.15v-1h.15v.13" transform="translate(0 -0.03)"/><path class="cls-3" d="M12.81,13.64v.9a.49.49,0,0,1-.51.56.51.51,0,0,1-.48-.34H12a.36.36,0,0,0,.31.19c.2,0,.35-.11.35-.41v-.07a.49.49,0,0,1-.37.17.51.51,0,0,1-.51-.51.52.52,0,0,1,.51-.52.48.48,0,0,1,.37.17v-.15h.16m-.16.49a.38.38,0,0,0-.37-.37.36.36,0,0,0-.35.37.35.35,0,0,0,.35.36A.37.37,0,0,0,12.64,14.13Z" transform="translate(0 -0.03)"/></g><polyline class="cls-3" points="13.3 15.05 13.12 15.05 13.4 14.49 12.97 13.61 13.14 13.61 13.49 14.31 13.84 13.61 14.02 13.61 13.58 14.49 13.3 15.05"/><polyline class="cls-3" points="14.88 14.6 14.13 14.6 14.13 14.46 14.68 13.76 14.13 13.76 14.13 13.61 14.87 13.61 14.87 13.76 14.32 14.46 14.88 14.46 14.88 14.6"/><path class="cls-3" d="M15.83,13h.52a.48.48,0,0,1,.51.5.47.47,0,0,1-.37.48l.49.62h-.22L16.29,14H16v.61h-.16V13m.52.84a.34.34,0,1,0,0-.68H16v.68Z" transform="translate(0 -0.03)"/><path class="cls-3" d="M18.11,14.2h-.86a.36.36,0,0,0,.35.3.35.35,0,0,0,.27-.14h.19a.51.51,0,0,1-.46.28.52.52,0,0,1-.51-.52.51.51,0,0,1,1,0v.07m-.86-.14h.69a.35.35,0,0,0-.69,0Z" transform="translate(0 -0.03)"/><path class="cls-3" d="M19.35,14.13a.52.52,0,0,1-.51.52.48.48,0,0,1-.37-.18v.61h-.15V13.64h.15v.16a.48.48,0,0,1,.37-.18.51.51,0,0,1,.51.51m-.16,0a.35.35,0,0,0-.35-.36.37.37,0,0,0-.37.36.38.38,0,0,0,.37.37A.36.36,0,0,0,19.2,14.13Z" transform="translate(0 -0.03)"/><path class="cls-3" d="M20.43,14.62h-.15v-.12a.43.43,0,0,1-.32.13c-.28,0-.4-.13-.4-.44v-.56h.15v.56c0,.2.09.29.25.29a.3.3,0,0,0,.32-.33v-.52h.15v1" transform="translate(0 -0.03)"/><path class="cls-3" d="M20.75,13h.15v.78a.48.48,0,0,1,.37-.18.51.51,0,0,1,.51.51.52.52,0,0,1-.51.52.48.48,0,0,1-.37-.18v.16h-.15V13m.88,1.11a.35.35,0,0,0-.35-.36.37.37,0,0,0-.37.36.38.38,0,0,0,.37.37A.36.36,0,0,0,21.62,14.13Z" transform="translate(0 -0.03)"/><rect class="cls-3" x="22" y="13" width="0.15" height="1.6"/><path class="cls-3" d="M22.43,13.33a.11.11,0,1,1,.11.11.11.11,0,0,1-.11-.11m0,.31h.16v1h-.16Z" transform="translate(0 -0.03)"/><g class="cls-4"><path class="cls-5" d="M23.68,14a.35.35,0,0,0-.31-.19.36.36,0,0,0-.35.36.36.36,0,0,0,.35.37.36.36,0,0,0,.31-.19h.17a.51.51,0,0,1-.48.34.52.52,0,0,1-.51-.52.51.51,0,0,1,1-.17h-.17" transform="translate(0 -0.03)"/><polyline class="cls-3" points="1.96 14.6 0 14.6 0 0 14.1 0 14.1 0.98 0.98 0.98 0.98 13.61 1.96 13.61 1.96 14.6"/></g></g></g></g></g></svg>