<svg xmlns="http://www.w3.org/2000/svg" viewBox="0 0 24.19 15"><defs><style>.cls-1{fill:#fff;}</style></defs><title>ilimLogo</title><g id="Слой_2" data-name="Слой 2"><g id="Слой_1-2" data-name="Слой 1"><path class="cls-1" d="M10.23,8.62l-.5-.48L9.83,8,11.3,6.56a.54.54,0,0,1,.25-.12l.65-.11a.45.45,0,0,0,.19-.1A2,2,0,0,0,12.62,6,.38.38,0,0,1,13,5.84a.53.53,0,0,0,.57-.34.58.58,0,0,0-.83-.73.56.56,0,0,0-.27.63.22.22,0,0,1-.06.23,1,1,0,0,1-.77.39c-.09,0-.17,0-.26,0a.53.53,0,0,0-.34.17L9.46,7.86,9,7.34l.28-.26,1.81-1.81a.2.2,0,0,1,.23-.07.57.57,0,0,0,.65-.29.58.58,0,0,0-.78-.79.57.57,0,0,0-.3.64.22.22,0,0,1-.07.24L8.69,7.09l-.51-.51.36-.33,1.4-1.4a.61.61,0,0,0,.13-.25,1.1,1.1,0,0,0,.06-.35c0-.4.26-.62.51-.84a.68.68,0,0,1,.31-.09,4.54,4.54,0,0,0,.56-.11.91.91,0,0,0,.3-.23.24.24,0,0,1,.26-.08.56.56,0,0,0,.63-.29.58.58,0,0,0-.77-.8.58.58,0,0,0-.32.62.39.39,0,0,1-.34.43l-.62.1a.46.46,0,0,0-.31.16,1.68,1.68,0,0,1-.27.26.9.9,0,0,0-.35.71,3.58,3.58,0,0,1-.06.42.25.25,0,0,1-.06.12L8,6.29l-.07.06c-.12-.13-.24-.27-.36-.4l-.63-.63a.41.41,0,0,1,0-.65L11.4.16a.41.41,0,0,1,.64,0l4.51,4.51a.41.41,0,0,1,0,.64L12,9.84a.4.4,0,0,1-.57,0c-.33-.31-.65-.64-1-1L11.35,8a.18.18,0,0,1,.14,0,.58.58,0,0,0,.67-.28.58.58,0,0,0-.8-.79.59.59,0,0,0-.27.67.19.19,0,0,1,0,.15Z"/><path class="cls-1" d="M6.94,14.3H6.54c0-.21,0-.41,0-.61s0-.6,0-.9a.45.45,0,0,0-.27-.47.49.49,0,0,0-.56.12.43.43,0,0,0-.11.26c0,.48,0,1,0,1.44,0,.14,0,.2-.18.18H5.2c0-.07,0-.13,0-.19q0-.68,0-1.36c0-.33-.15-.48-.47-.48a.48.48,0,0,0-.49.49c0,.46,0,.93,0,1.39,0,.17-.09.15-.2.15s-.2,0-.2-.15c0-.67,0-1.34,0-2,0-.05,0-.14.07-.14s.18,0,.23.07a1.86,1.86,0,0,0,.1.18.85.85,0,0,1,1.27,0A2.83,2.83,0,0,1,6,12a.69.69,0,0,1,.95.65C7,13.19,6.94,13.74,6.94,14.3Z"/><path class="cls-1" d="M22.53,14.16c-.18.2-.18.2-.33.18V11.06h.38v1.08l.08,0a1,1,0,0,1,1.51.72,1.94,1.94,0,0,1,0,.63A1,1,0,0,1,22.53,14.16Zm1.26-1h0s0-.08,0-.12a.75.75,0,0,0-.8-.75c-.2,0-.39.14-.39.28,0,.39,0,.79,0,1.18a.19.19,0,0,0,.05.13.7.7,0,0,0,1.1-.37C23.76,13.4,23.77,13.28,23.79,13.16Z"/><path class="cls-1" d="M12.4,13.19H10.7a.74.74,0,0,0,.29.7.88.88,0,0,0,1,0l.17.29a4.12,4.12,0,0,1-.44.18,1.09,1.09,0,0,1-1.39-.61A1.27,1.27,0,0,1,11,12a1,1,0,0,1,1.38.58A3.36,3.36,0,0,1,12.4,13.19ZM12,12.9a.57.57,0,0,0-.58-.61.63.63,0,0,0-.7.61Z"/><path class="cls-1" d="M21.24,12.88a.46.46,0,0,0-.54-.57,4.2,4.2,0,0,0-.57.14L20,12.18a1.08,1.08,0,0,1,.62-.22,1.66,1.66,0,0,1,.46,0,.71.71,0,0,1,.57.74c0,.32,0,.63,0,1a.6.6,0,0,0,.14.45s0,.12.05.2a.49.49,0,0,1-.55-.3,1,1,0,0,1-.74.31.64.64,0,0,1-.61-.38.66.66,0,0,1,.08-.75,1.12,1.12,0,0,1,1-.38Zm0,.59a1.45,1.45,0,0,0,0-.22.15.15,0,0,0-.07-.1.77.77,0,0,0-.85.27.43.43,0,0,0,0,.45.37.37,0,0,0,.36.18A.53.53,0,0,0,21.26,13.47Z"/><path class="cls-1" d="M15,14.31V11.06h.39v1.18a.92.92,0,0,1,.69-.28.67.67,0,0,1,.68.53,9.73,9.73,0,0,1,.09,1h-.42c0-.17,0-.34,0-.51s0-.07,0-.11a.54.54,0,0,0-.28-.55.57.57,0,0,0-.65.14.37.37,0,0,0-.11.24c0,.48,0,1,0,1.43,0,.13,0,.2-.17.18Z"/><path class="cls-1" d="M14.45,12.4a4.5,4.5,0,0,0-.58-.11.63.63,0,0,0-.66.43,1.14,1.14,0,0,0,0,.87.75.75,0,0,0,1,.37l.24-.12.14.3A1.31,1.31,0,0,1,13,14a1.36,1.36,0,0,1,0-1.71,1.24,1.24,0,0,1,1.59-.13l-.08.12Z"/><path class="cls-1" d="M10,14c.09.34.09.35-.25.38s-.75-.11-.85-.49a1,1,0,0,1,0-.25c0-.37,0-.74,0-1.11,0-.16,0-.23-.2-.2H8.62V12l0,0c.24,0,.24,0,.24-.28s0-.25.38-.34V12H9.9v.3H9.41c-.1,0-.14,0-.13.14,0,.36,0,.72,0,1.08s.22.59.65.48Z"/><path class="cls-1" d="M1.77,11v.2q0,1.11,0,2.23c0,.35.06.43.38.54v.31a.61.61,0,0,1-.76-.59c0-.6,0-1.19,0-1.79,0-.25,0-.5,0-.75s0-.17.16-.16Z"/><path class="cls-1" d="M17.28,14.32a.68.68,0,0,1-.68.68.69.69,0,0,1-.67-.68.68.68,0,0,1,.68-.68A.67.67,0,0,1,17.28,14.32Zm-.68.35a.36.36,0,1,0-.36-.35A.35.35,0,0,0,16.6,14.67Z"/><path class="cls-1" d="M19.61,11a.68.68,0,1,1-1.36,0,.68.68,0,0,1,1.36,0Zm-.67.36a.36.36,0,1,0-.36-.35A.35.35,0,0,0,18.94,11.39Z"/><path class="cls-1" d="M.31,12.33H0V12H.69V14.3H.31Z"/><path class="cls-1" d="M2.77,12.33H2.47V12h.69V14.3H2.77Z"/><path class="cls-1" d="M19.51,14v.3a.61.61,0,0,1-.76-.61c0-.61,0-1.22,0-1.85h.37c0,.05,0,.11,0,.17q0,.69,0,1.37C19.12,13.83,19.15,13.87,19.51,14Z"/><circle class="cls-1" cx="13.08" cy="5.27" r="0.27" transform="translate(-0.1 0.27) rotate(-1.16)"/><circle class="cls-1" cx="12.19" cy="2.33" r="0.27" transform="translate(-0.01 0.06) rotate(-0.3)"/><path class="cls-1" d="M11.41,4.36a.26.26,0,0,1,.28.27.27.27,0,0,1-.27.28.29.29,0,0,1-.28-.27A.27.27,0,0,1,11.41,4.36Z"/><path class="cls-1" d="M11.92,7.47a.28.28,0,0,1-.28.28.27.27,0,0,1-.27-.26.26.26,0,0,1,.27-.28A.27.27,0,0,1,11.92,7.47Z"/><path class="cls-1" d="M.76,11.36a.23.23,0,0,1-.24.24.24.24,0,0,1-.24-.25.26.26,0,0,1,.24-.24A.24.24,0,0,1,.76,11.36Z"/><path class="cls-1" d="M3.23,11.37A.23.23,0,0,1,3,11.6a.24.24,0,0,1-.24-.24A.25.25,0,0,1,3,11.11.25.25,0,0,1,3.23,11.37Z"/></g></g></svg>