<svg xmlns="http://www.w3.org/2000/svg" viewBox="0 0 297.5 105.9"><defs><style>.cls-1{fill:#fff;}</style></defs><title>logo_1</title><g id="Слой_2" data-name="Слой 2"><g id="Слой_1-2" data-name="Слой 1"><path class="cls-1" d="M35,94.66h3.06v10.22a11.15,11.15,0,0,1-1.09.28c-.47.11-1,.21-1.64.32s-1.3.19-2,.27-1.48.11-2.24.11a11.21,11.21,0,0,1-4.2-.76,8.93,8.93,0,0,1-3.25-2.21,10,10,0,0,1-2.1-3.57,14.65,14.65,0,0,1-.74-4.86,13.25,13.25,0,0,1,.84-4.88A10.57,10.57,0,0,1,23.89,86a9.51,9.51,0,0,1,3.33-2.21A11,11,0,0,1,31.31,83a16.43,16.43,0,0,1,2.64.19,15.12,15.12,0,0,1,2,.44,9.7,9.7,0,0,1,1.34.5,7.5,7.5,0,0,1,.71.38l-1,2.56a8.27,8.27,0,0,0-2.43-1,12.22,12.22,0,0,0-3.09-.39,7.5,7.5,0,0,0-3,.6,6.34,6.34,0,0,0-2.34,1.73,8.17,8.17,0,0,0-1.5,2.76A11.57,11.57,0,0,0,24,94.47,13,13,0,0,0,24.51,98a7.66,7.66,0,0,0,1.39,2.76,6.31,6.31,0,0,0,2.3,1.78,7.68,7.68,0,0,0,3.24.63,15.21,15.21,0,0,0,2.26-.14A10.38,10.38,0,0,0,35,102.8Zm15.15,10.76V83.55H63.53v2.62H53.24v6.5h9.15v2.56H53.24v7.57H64.32v2.62Zm40.3,0q-.69-1.17-1.59-2.62t-1.94-3q-1-1.56-2.16-3.17t-2.22-3.11q-1.11-1.5-2.15-2.83t-1.92-2.34v17.07h-3V83.55h2.43q1.48,1.58,3.17,3.68t3.35,4.32q1.66,2.22,3.12,4.37T90,99.74V83.55h3v21.87Zm15.27,0V83.55H119.1v2.62H108.81v6.5H118v2.56h-9.15v7.57h11.08v2.62Zm36-9.15q.5.63,1.28,1.66t1.59,2.27q.82,1.25,1.63,2.6a26.47,26.47,0,0,1,1.37,2.62h-3.35q-.63-1.2-1.37-2.43t-1.5-2.35q-.76-1.12-1.5-2.1t-1.34-1.7q-.41,0-.84,0h-3.61v8.55h-3.06V83.87a17.18,17.18,0,0,1,2.89-.43q1.59-.11,2.92-.11,4.61,0,7,1.73a6,6,0,0,1,2.41,5.18A6.06,6.06,0,0,1,145.15,94,6.79,6.79,0,0,1,141.76,96.27ZM137.12,86q-2,0-3,.09v8.24h2.18a23,23,0,0,0,2.84-.16,6.45,6.45,0,0,0,2.13-.6,3.2,3.2,0,0,0,1.34-1.25,4.18,4.18,0,0,0,.47-2.13,4,4,0,0,0-.47-2.05,3.5,3.5,0,0,0-1.28-1.29,5.63,5.63,0,0,0-1.89-.66A13.57,13.57,0,0,0,137.12,86Zm35.69,19.41q-.54-1.42-1-2.79t-1-2.79h-9.91l-2,5.59h-3.19Q157,102,158.11,99t2.16-5.6q1.06-2.65,2.1-5.07t2.18-4.78h2.81q1.13,2.37,2.18,4.78t2.1,5.07q1.06,2.65,2.16,5.6t2.37,6.42Zm-2.87-8.11q-1-2.74-2-5.32t-2.07-4.94q-1.11,2.37-2.1,4.94t-2,5.32ZM201,83.55V86.2h-6.88v19.22h-3.06V86.2h-6.88V83.55Zm10.51,0h3.06v21.87h-3.06Zm14.89,10.92a13.56,13.56,0,0,1,.84-5,10.24,10.24,0,0,1,2.27-3.58,9.41,9.41,0,0,1,3.35-2.16,11.31,11.31,0,0,1,4.06-.73,11,11,0,0,1,4,.73,9.31,9.31,0,0,1,3.3,2.16,10.36,10.36,0,0,1,2.26,3.58,15.08,15.08,0,0,1,0,9.91,10.34,10.34,0,0,1-2.26,3.58,9.28,9.28,0,0,1-3.3,2.16,11,11,0,0,1-4,.73,11.31,11.31,0,0,1-4.06-.73,9.37,9.37,0,0,1-3.35-2.16,10.23,10.23,0,0,1-2.27-3.58A13.56,13.56,0,0,1,226.43,94.47Zm3.22,0a12.15,12.15,0,0,0,.5,3.61,8.06,8.06,0,0,0,1.44,2.76,6.27,6.27,0,0,0,2.27,1.75,7.13,7.13,0,0,0,3,.62,7,7,0,0,0,3-.62,6.31,6.31,0,0,0,2.26-1.75,8.08,8.08,0,0,0,1.44-2.76,13.19,13.19,0,0,0,0-7.23,8.1,8.1,0,0,0-1.44-2.76,6.31,6.31,0,0,0-2.26-1.75,7,7,0,0,0-3-.62,7.13,7.13,0,0,0-3,.62,6.27,6.27,0,0,0-2.27,1.75,8.08,8.08,0,0,0-1.44,2.76A12.15,12.15,0,0,0,229.65,94.47Zm44.5,11q-.69-1.17-1.59-2.62t-1.94-3q-1-1.56-2.16-3.17t-2.22-3.11q-1.11-1.5-2.15-2.83t-1.92-2.34v17.07h-3V83.55h2.43q1.48,1.58,3.17,3.68t3.35,4.32q1.66,2.22,3.12,4.37t2.48,3.82V83.55h3v21.87ZM35.94,71.88A35.94,35.94,0,1,1,61.35,10.53a1.23,1.23,0,0,1,0,1.74L55.22,18.4a1.23,1.23,0,0,1-1.74,0,24.81,24.81,0,1,0,0,35.08,1.27,1.27,0,0,1,1.74,0l6.13,6.14a1.23,1.23,0,0,1,0,1.74A35.7,35.7,0,0,1,35.94,71.88Zm0-69.42a33.48,33.48,0,1,0,22.79,58l-4.4-4.4A27.26,27.26,0,1,1,35.94,8.68a27.06,27.06,0,0,1,18.39,7.13l4.4-4.4A33.25,33.25,0,0,0,35.94,2.46Zm69.42,69.42A35.94,35.94,0,1,1,141.3,35.94,36,36,0,0,1,105.36,71.88Zm0-69.42a33.48,33.48,0,1,0,33.48,33.48A33.52,33.52,0,0,0,105.36,2.46Zm0,60.74a27.26,27.26,0,1,1,27.26-27.26A27.29,27.29,0,0,1,105.36,63.2Zm0-52.06a24.8,24.8,0,1,0,24.8,24.8A24.83,24.83,0,0,0,105.36,11.14Zm69.42,60.74H153.09a1.23,1.23,0,0,1-1.23-1.23V1.23A1.23,1.23,0,0,1,153.09,0h21.69A1.23,1.23,0,0,1,176,1.23V9.91a1.23,1.23,0,0,1-1.23,1.23H163V60.74h11.78A1.23,1.23,0,0,1,176,62v8.68A1.23,1.23,0,0,1,174.78,71.88Zm-20.46-2.46h19.23V63.2H161.77A1.23,1.23,0,0,1,160.54,62V9.91a1.23,1.23,0,0,1,1.23-1.23h11.78V2.46H154.32Zm107.24,2.46A35.94,35.94,0,1,1,287,10.53a1.23,1.23,0,0,1,0,1.74l-6.14,6.13a1.23,1.23,0,0,1-1.74,0,24.81,24.81,0,1,0,0,35.08,1.23,1.23,0,0,1,1.74,0L287,59.61a1.23,1.23,0,0,1,0,1.74A35.7,35.7,0,0,1,261.56,71.88Zm0-69.42a33.48,33.48,0,1,0,22.79,58l-4.4-4.4A27.26,27.26,0,1,1,261.56,8.68a27.05,27.05,0,0,1,18.39,7.13l4.4-4.4A33.25,33.25,0,0,0,261.56,2.46ZM296,41.5H261.56a1.23,1.23,0,0,1-1.23-1.23V31.6a1.23,1.23,0,0,1,1.23-1.23H296a1.23,1.23,0,0,1,1.22,1.08,36.37,36.37,0,0,1,0,9A1.23,1.23,0,0,1,296,41.5ZM262.79,39H294.9c.1-1,.14-2.07.14-3.11s0-2.08-.14-3.11H262.79ZM183.46,71.88a1.23,1.23,0,0,1-1.23-1.23V62a1.23,1.23,0,0,1,1.23-1.23,24.8,24.8,0,1,0,0-49.61,1.23,1.23,0,0,1-1.23-1.23V1.23A1.23,1.23,0,0,1,183.46,0a35.94,35.94,0,0,1,0,71.88Zm1.23-8.71V69.4a33.48,33.48,0,0,0,0-66.91V8.71a27.26,27.26,0,0,1,0,54.47Z"/></g></g></svg>