<svg xmlns="http://www.w3.org/2000/svg" viewBox="0 0 257.77 256.45"><defs><style>.cls-1{fill:#fff;}</style></defs><title>logopython</title><g id="Слой_2" data-name="Слой 2"><g id="Слой_1-2" data-name="Слой 1"><path class="cls-1" d="M37.6,192.72c-2.31,0-11.54-.57-20.33-8.82C5.81,173.16,0,154.32,0,127.9,0,103,5.92,85.13,17.59,74.7a35.7,35.7,0,0,1,26-9.24h83.26V61.23H65.53l-.07-31.11h0s-.92-6.87,5.28-14C80,5.41,99.24,0,128,0c28.41,0,47.85,5.86,57.76,17.43,7.82,9.13,6.51,18.37,6.45,18.75l0,55.22c0,10.43-3.15,18.81-9.35,24.92-10.69,10.52-26.47,10.36-27.11,10.36H94.92c-10.23,0-18.29,3-23.95,8.8-9.54,9.85-9.17,24.67-9.17,24.82v32.41H37.6ZM41.75,69.85a32.24,32.24,0,0,0-21.27,8.24c-10.64,9.55-16,26.31-16,49.81,0,24.7,5.45,42.92,15.76,52.67,8.59,8.13,17.45,7.71,17.8,7.7H57.35V160.37c0-.61-.41-16.8,10.42-28,6.53-6.74,15.66-10.16,27.15-10.16h60.86c.13,0,14.68.06,24-9.1,5.31-5.24,8-12.54,8-21.72V35.85c.07-.64,1-8.08-5.49-15.63C176,13,161.54,4.45,128,4.45,94.06,4.45,80,12.29,74.23,18.86c-4.95,5.62-4.37,10.74-4.35,11l.08,27h61.37V69.91h-88C43.3,69.9,42.72,69.85,41.75,69.85ZM94.13,46a13.27,13.27,0,0,1,0-26.53h0a13.27,13.27,0,0,1,0,26.53Zm0-22.08a8.81,8.81,0,0,0,0,17.62h0a8.81,8.81,0,1,0,0-17.62h0Z"/><path class="cls-1" d="M129.8,256.45c-28.41,0-47.85-5.87-57.77-17.43-7.82-9.13-6.51-18.37-6.45-18.75l0-55.22c0-10.43,3.15-18.81,9.35-24.92C85.6,129.61,101.32,129.8,102,129.76h60.83c10.23,0,18.29-3,23.95-8.8,9.54-9.85,9.17-24.67,9.17-24.82V63.74h23.66c.3,0,10.87-.58,20.88,8.8,11.46,10.75,17.27,29.59,17.27,56,0,24.87-5.92,42.77-17.59,53.19a35.81,35.81,0,0,1-26,9.24H130.88v4.22h61.36l.08,31.11h0s.92,6.87-5.28,14C177.78,251,158.53,256.45,129.8,256.45ZM101.94,134.22c-.91,0-14.86.16-23.93,9.1-5.31,5.24-8,12.54-8,21.72V220.6c-.07.64-1,8.08,5.49,15.63C81.74,243.42,96.22,252,129.79,252h0c33.91,0,47.94-7.83,53.74-14.41,5-5.62,4.38-10.74,4.35-11l-.09-27H126.42V186.54h88a31.9,31.9,0,0,0,22.89-8.18c10.64-9.55,16-26.31,16-49.81,0-24.7-5.45-42.92-15.76-52.67-8.58-8.12-17.42-7.69-17.8-7.7H200.41V96.07c0,.61.41,16.8-10.42,28-6.53,6.74-15.66,10.16-27.15,10.16H101.94ZM163.61,237a13.27,13.27,0,0,1,0-26.53h0a13.27,13.27,0,1,1,0,26.53l0-2.23V237Zm0-22.08h0a8.81,8.81,0,1,0,0,17.62h0a8.81,8.81,0,0,0,8.79-8.81A8.82,8.82,0,0,0,163.65,214.94Z"/></g></g></svg>