<svg xmlns="http://www.w3.org/2000/svg" viewBox="0 0 368.5 132.79"><defs><style>.cls-1{fill:#fff;}</style></defs><title>logo5</title><g id="Слой_2" data-name="Слой 2"><g id="Слой_1-2" data-name="Слой 1"><path class="cls-1" d="M192.49,58.23l-3-8.23H178.09l-2.81,8.23H168l13.38-37.44h5.36l13.38,37.44Zm-7.33-22.36L184,30h-.27l-1.12,5.9L180,44.16h8l-2.76-8.29Zm24.38,11.84a10.11,10.11,0,0,0,.56,4,2.1,2.1,0,0,0,2.1,1.2,7,7,0,0,0,1.83-.21,12.37,12.37,0,0,0,1.73-.64L217,57.33a17.53,17.53,0,0,1-3.35,1.17,15.93,15.93,0,0,1-3.88.48q-3.66,0-5.39-1.89t-1.73-6.19V37.52H199V31.68h3.66v-5l6.91-2v7H216v5.84h-6.48v10.2Zm19,0a10.1,10.1,0,0,0,.56,4,2.1,2.1,0,0,0,2.1,1.2,7,7,0,0,0,1.83-.21,12.37,12.37,0,0,0,1.73-.64l1.22,5.31a17.52,17.52,0,0,1-3.35,1.17,15.93,15.93,0,0,1-3.88.48q-3.66,0-5.39-1.89t-1.73-6.19V37.52h-3.66V31.68h3.66v-5l6.9-2v7H235v5.84H228.5v10.2Zm25.39-9.56a9,9,0,0,0-3-.58,4.86,4.86,0,0,0-3.11,1,4.73,4.73,0,0,0-1.67,2.52V58.23h-6.9V31.68h5.36l.8,3.51h.21a7.24,7.24,0,0,1,2.44-3,6.2,6.2,0,0,1,3.61-1.06,10,10,0,0,1,3.13.58l-.9,6.48Zm24.19,11.63q0,2.28.13,4.43a16.7,16.7,0,0,0,.8,4.06h-5.63l-1.12-3.66H272a9.46,9.46,0,0,1-2.95,2.84,8.94,8.94,0,0,1-4.86,1.19,9.48,9.48,0,0,1-3.35-.56,7.15,7.15,0,0,1-4.2-4,8.16,8.16,0,0,1-.58-3.16,7.39,7.39,0,0,1,1.09-4.12,7.87,7.87,0,0,1,3.13-2.71,15.56,15.56,0,0,1,4.89-1.43,34.62,34.62,0,0,1,6.35-.24q.37-3-.42-4.28t-3.56-1.3a24.32,24.32,0,0,0-4.38.42,16.09,16.09,0,0,0-3.8,1.12l-1.65-5.15a22.71,22.71,0,0,1,5-1.51,32.51,32.51,0,0,1,6.11-.56,13.89,13.89,0,0,1,4.62.66A6.66,6.66,0,0,1,278,36.62a15,15,0,0,1,.45,3.82q0,2.34-.16,4.7t-.19,4.65Zm-6.51-3.19a19,19,0,0,0-3.16-.05,11.52,11.52,0,0,0-2.68.48,4.5,4.5,0,0,0-1.86,1.06,2.37,2.37,0,0,0-.69,1.75,3,3,0,0,0,.88,2.31,3.39,3.39,0,0,0,2.42.82,5.31,5.31,0,0,0,3.29-.93,6.49,6.49,0,0,0,1.81-2V46.6Zm26.53-9.24a10.65,10.65,0,0,0-2.73-.32A5.21,5.21,0,0,0,291,38.93q-1.49,1.89-1.49,6a12.44,12.44,0,0,0,.37,3.13,7.64,7.64,0,0,0,1.12,2.5A5.21,5.21,0,0,0,293,52.26a6,6,0,0,0,2.79.61,8.61,8.61,0,0,0,3-.45,10.39,10.39,0,0,0,2.18-1.09l1.59,5.26a11.55,11.55,0,0,1-3.85,1.78A17.75,17.75,0,0,1,294,59a12.92,12.92,0,0,1-5.39-1A9.18,9.18,0,0,1,285,55.13a11.7,11.7,0,0,1-2-4.43,25.07,25.07,0,0,1-.61-5.74q0-6.75,3-10.38t8.82-3.64a18.72,18.72,0,0,1,4.7.48,16,16,0,0,1,3.21,1.22l-1.65,5.63a14,14,0,0,0-2.42-.9Zm16.39,10.36a10.11,10.11,0,0,0,.56,4,2.1,2.1,0,0,0,2.1,1.2,7,7,0,0,0,1.83-.21A12.37,12.37,0,0,0,320.7,52l1.22,5.31a17.53,17.53,0,0,1-3.35,1.17,15.93,15.93,0,0,1-3.88.48q-3.66,0-5.39-1.89t-1.73-6.19V37.52h-3.66V31.68h3.66v-5l6.91-2v7H321v5.84h-6.48v10.2Zm30.94,7.62Q342.16,59,336.21,59a13.87,13.87,0,0,1-5.52-1,10.54,10.54,0,0,1-3.9-2.84,11.92,11.92,0,0,1-2.34-4.43,20.16,20.16,0,0,1-.77-5.74q0-6.75,3.29-10.38t9.24-3.64a13.88,13.88,0,0,1,5.52,1,10.33,10.33,0,0,1,3.88,2.84,12.17,12.17,0,0,1,2.31,4.43,20.19,20.19,0,0,1,.77,5.74q0,6.75-3.27,10.38ZM340.35,39a4.32,4.32,0,0,0-4.14-2.26,4.7,4.7,0,0,0-4,1.91q-1.43,1.91-1.43,6.27a15.46,15.46,0,0,0,.32,3.24,9,9,0,0,0,1,2.6,4.61,4.61,0,0,0,1.67,1.73,4.77,4.77,0,0,0,2.47.61,4.54,4.54,0,0,0,4-2q1.33-2,1.33-6.21A12.43,12.43,0,0,0,340.35,39Zm27.25-.88a9,9,0,0,0-3-.58,4.87,4.87,0,0,0-3.11,1,4.73,4.73,0,0,0-1.67,2.52V58.23h-6.9V31.68h5.36l.8,3.51h.21a7.24,7.24,0,0,1,2.44-3,6.2,6.2,0,0,1,3.61-1.06,10,10,0,0,1,3.13.58l-.9,6.48ZM187.87,80.35a19.9,19.9,0,0,0-5-.61,6.46,6.46,0,0,0-3.9,1,3.21,3.21,0,0,0-1.35,2.71,3.34,3.34,0,0,0,1.25,2.66,14.37,14.37,0,0,0,3.13,2q1.88.9,4.09,1.86a22,22,0,0,1,4.09,2.31,11.79,11.79,0,0,1,3.13,3.35,9.19,9.19,0,0,1,1.25,5,12.26,12.26,0,0,1-1,5.13,9.72,9.72,0,0,1-2.76,3.58,11.67,11.67,0,0,1-4.3,2.12,21,21,0,0,1-5.55.69,29.57,29.57,0,0,1-7-.74,21.37,21.37,0,0,1-4.46-1.49l2.34-6.21a14.24,14.24,0,0,0,1.51.69,19.23,19.23,0,0,0,2.1.69,24,24,0,0,0,2.47.53,16.53,16.53,0,0,0,2.68.21,9.36,9.36,0,0,0,5-1.09,3.66,3.66,0,0,0,1.73-3.32A3.46,3.46,0,0,0,186,98.6a13.8,13.8,0,0,0-3.13-1.94q-1.89-.88-4.09-1.81a20.86,20.86,0,0,1-4.09-2.28,11.63,11.63,0,0,1-3.13-3.37A9.65,9.65,0,0,1,170.29,84a11.29,11.29,0,0,1,.9-4.7A8.81,8.81,0,0,1,173.77,76a11.08,11.08,0,0,1,4-2,19,19,0,0,1,5.1-.64,32,32,0,0,1,6.11.56,15.53,15.53,0,0,1,4.73,1.62l-2.28,6.11a12.82,12.82,0,0,0-3.51-1.35Zm31.79,28.1q-3.27,3.64-9.22,3.64a13.86,13.86,0,0,1-5.52-1,10.54,10.54,0,0,1-3.9-2.84,11.92,11.92,0,0,1-2.34-4.44,20.15,20.15,0,0,1-.77-5.74q0-6.75,3.29-10.38T210.44,84a13.88,13.88,0,0,1,5.52,1,10.34,10.34,0,0,1,3.88,2.84,12.16,12.16,0,0,1,2.31,4.44,20.16,20.16,0,0,1,.77,5.74q0,6.75-3.27,10.38Zm-5.07-16.31a4.32,4.32,0,0,0-4.14-2.26,4.7,4.7,0,0,0-4,1.91Q205,93.71,205,98.07a15.46,15.46,0,0,0,.32,3.24,9,9,0,0,0,1,2.6,4.61,4.61,0,0,0,1.67,1.73,4.77,4.77,0,0,0,2.47.61,4.54,4.54,0,0,0,4-2q1.33-2,1.33-6.21a12.43,12.43,0,0,0-1.22-5.92Zm27.72-11.87a11.76,11.76,0,0,0-2.15-.56,13.72,13.72,0,0,0-1.94-.13,3.65,3.65,0,0,0-1.67.32,2,2,0,0,0-.9,1,5.14,5.14,0,0,0-.37,1.65q-.08,1-.08,2.26H241v5.84h-5.84v20.71h-6.9V90.63h-3.67V84.79h3.67V83.3q0-5,2.12-7.3a8.06,8.06,0,0,1,6.16-2.26,21.19,21.19,0,0,1,7.06,1l-1.33,5.52Zm10.52,20.55a10.11,10.11,0,0,0,.56,4,2.1,2.1,0,0,0,2.1,1.19,6.93,6.93,0,0,0,1.83-.21,12.37,12.37,0,0,0,1.73-.64l1.22,5.31a17.49,17.49,0,0,1-3.35,1.17,15.93,15.93,0,0,1-3.88.48q-3.66,0-5.39-1.89T245.92,104V90.63h-3.67V84.79h3.67v-5l6.9-2v7h6.48v5.84h-6.48v10.2Zm37.87,10.78h-5.1l-5.36-14.87-.69-3.35h-.27l-.64,3.4-5.1,14.82h-5.26l-8.55-26.82h7.49l3.88,13.33.64,4.73H272l.9-4.78,4.41-13.28h5.1l4.83,13.6,1,4.41h.21l.74-4.46,3.4-13.54h6.32l-8.18,26.82Zm31-8.71q0,2.28.13,4.44a16.7,16.7,0,0,0,.8,4.06H317l-1.12-3.66h-.27a9.46,9.46,0,0,1-2.95,2.84,9,9,0,0,1-4.86,1.19,9.47,9.47,0,0,1-3.35-.56,7.16,7.16,0,0,1-4.2-4,8.17,8.17,0,0,1-.58-3.16,7.39,7.39,0,0,1,1.09-4.12,7.87,7.87,0,0,1,3.13-2.71,15.56,15.56,0,0,1,4.89-1.43,34.63,34.63,0,0,1,6.35-.24q.37-3-.42-4.28t-3.56-1.3a24.32,24.32,0,0,0-4.38.42,16,16,0,0,0-3.8,1.12l-1.65-5.15a22.7,22.7,0,0,1,5-1.51,32.51,32.51,0,0,1,6.11-.56,13.87,13.87,0,0,1,4.62.66,6.66,6.66,0,0,1,4.49,4.81,15,15,0,0,1,.45,3.82q0,2.34-.16,4.7t-.19,4.65Zm-6.51-3.19a19,19,0,0,0-3.16-.05,11.59,11.59,0,0,0-2.68.48,4.51,4.51,0,0,0-1.86,1.06,2.37,2.37,0,0,0-.69,1.75,3,3,0,0,0,.88,2.31,3.39,3.39,0,0,0,2.42.82,5.31,5.31,0,0,0,3.29-.93,6.49,6.49,0,0,0,1.81-2V99.71Zm26.77-8.44a9,9,0,0,0-3-.58,4.87,4.87,0,0,0-3.11,1,4.73,4.73,0,0,0-1.67,2.52v17.15h-6.9V84.79h5.36l.8,3.51h.21a7.24,7.24,0,0,1,2.44-3,6.21,6.21,0,0,1,3.61-1.06,10.06,10.06,0,0,1,3.13.58l-.9,6.48Zm25.95,5.9q-.13,1.27-.4,2.66H351.61a7.8,7.8,0,0,0,1.72,5q1.56,1.7,5.05,1.7a11.23,11.23,0,0,0,6.51-2l2.28,4.51a13.51,13.51,0,0,1-4.33,2.15,19,19,0,0,1-5.82.88q-6.43,0-9.4-3.74t-3-10.28q0-7,3.35-10.52T357.4,84a14.65,14.65,0,0,1,3.93.53,9.17,9.17,0,0,1,3.4,1.75,8.64,8.64,0,0,1,2.39,3.29,12.92,12.92,0,0,1,.9,5.15,23.32,23.32,0,0,1-.13,2.39Zm-7.17-6.05a3.88,3.88,0,0,0-3.41-1.54,4.8,4.8,0,0,0-4,1.62,8,8,0,0,0-1.56,4.33h9.83a6.72,6.72,0,0,0-.87-4.41Z"/><path class="cls-1" d="M87.76,46.9C80.36,70.81,53.33,79.21,50.82,72.06,54,74.43,76.2,66.67,80.24,48.83,82.59,38.44,76.53,26.77,55.41,33c-18.31,5.42-34,18.5-46.3,34.77,10-23.74,37.54-38.5,48.72-41.8,18.6-5.49,35.63,2.47,29.92,20.91Zm54.3-9.82c-5.34,17.56-27.54,47.36-67.12,62.16C29.78,116.12,24.26,90.18,31.2,74c4.81-11.21,13.73-21.27,24-25.51C64.63,44.67,68,46,68,46c-2.25.55-5.13,1.14-13.36,6.1S40,64.25,37.37,74.69c-3,11.9,5.14,29.86,40.71,12.62,55.3-26.81,57.4-67.93,57.45-75,7.51,1.18,10.56,11.48,6.53,24.73Zm-77,5.28c-6.78.26-25.9,8-38.18,30.12C14.81,94.21,22.49,121.1,50.5,122.55c18.75,1,39.24-5.84,57.33-18.42C88.53,124.79,66.59,133,44.27,132.79,9.48,132.42,6.78,96.65,21.55,71.15,32,53.11,55,37.66,68.2,38.74c14.47,1.18,6,16.65,4.2,18.67,1.52-3.78,5.15-15.53-7.35-15.05Zm45.27-12.74C109,46.82,94.1,64.38,84,72.31c-8.73,6.87-22,14.45-33,13.48C37.8,84.62,40.62,68.13,50.42,59c-9.66,16-2.91,20.29,3.44,20.68,6,.37,14.95-2,25.79-10.52C97.32,55.25,115.21,17,84.41,11.26c-9.72-1.81-20.82,1.91-20.82,1.91,6-5,20.52-11.12,31-8.52,12.55,3.12,16.48,15.05,15.72,25Z"/><path class="cls-1" d="M122.41,87.22c-15.19,14.05-32.57,22.62-52.13,27.36-37.47,9.09-47-14.93-45-25.54,0,6.45,5.72,30.16,42.33,18.9,51.11-15.72,71.76-50.62,71.76-50.62.33,5.21-1.53,15.65-16.93,29.89ZM105.82,61.66C88.21,80.79,65.28,89.14,61.15,88.57c5-.79,42.71-14.82,55-54.32C122.9,12.79,112,2.65,102.62,1.55,110.57-1.16,118-.23,122.75,3.67c9.21,7.65,6.21,32.86-16.92,58ZM8.33,123.3c-6.54-11.24,2.89-40.81,5.11-42.67,0,0-10.78,23.85.52,42.75,2.32,3.88,6.36,6.65,9.63,9-6.85-.51-11.62-2.85-15.26-9.11ZM80.5,64.54c7-8,19.75-27.1,8-39.38C77,13.1,48.53,22.51,36.93,31.88A52.29,52.29,0,0,1,57.62,18.21C73.1,12.8,86,14.47,92.61,22.9c9.26,11.73-2.17,32.39-12.11,41.64ZM39.82,46.89C8.4,70.9,2.74,95.14,2.44,109.46c-3.75-6.55-4.34-19.3,6.79-35.78,7-10.36,18.5-22.23,30.06-29.56,15.27-9.69,26.45-10,28.83-9.06-3.86-.11-15.27,1.89-28.29,11.83Z"/></g></g></svg>