<svg xmlns="http://www.w3.org/2000/svg" viewBox="0 0 190.2 83.3"><defs><style>.cls-1,.cls-2{fill:#fff;}.cls-1{fill-rule:evenodd;}</style></defs><title>logo7</title><g id="Слой_2" data-name="Слой 2"><g id="Layer_1" data-name="Layer 1"><path class="cls-1" d="M18.49,71.94c-.11-.27-.22-.52-.34-.76a7,7,0,0,0-.4-.66l-.46-.64a6.49,6.49,0,0,0-1.72-1.61,3.9,3.9,0,0,0-2.11-.59A1.61,1.61,0,0,0,12,68.3a3.32,3.32,0,0,0-.91.19,3.25,3.25,0,0,0-.62.29,11.18,11.18,0,0,0-2,1.87,10.59,10.59,0,0,0-1.34,2.05,9.27,9.27,0,0,0-.73,2.07,9,9,0,0,0-.23,1.94,8.09,8.09,0,0,0,.22,2,6.43,6.43,0,0,0,.7,1.77A5,5,0,0,0,9.9,82.74,6.58,6.58,0,0,0,12,83a6.29,6.29,0,0,0,2.11-.32,4.83,4.83,0,0,0,1.57-.9,9.84,9.84,0,0,0,2.84-4.16A8.94,8.94,0,0,0,19,75.27a8,8,0,0,0-.21-2.41A7.07,7.07,0,0,0,18.49,71.94Zm-2.58,4.63a6.84,6.84,0,0,1-.83,1.86,5.09,5.09,0,0,1-1.4,1.45,3.41,3.41,0,0,1-2,.57,3.2,3.2,0,0,1-1.08-.17,2.78,2.78,0,0,1-.83-.48,2.49,2.49,0,0,1-.59-.74,3.69,3.69,0,0,1-.35-.92,5,5,0,0,1-.11-.59,4.55,4.55,0,0,1,0-.65,3.86,3.86,0,0,1,.13-1,8.8,8.8,0,0,1,.35-1.1,7.84,7.84,0,0,1,1.21-2.1,5.25,5.25,0,0,1,.79-.81,3.12,3.12,0,0,1,.88-.51,10.33,10.33,0,0,0,1.17-.18,2.85,2.85,0,0,0,.68-.24.86.86,0,0,0,.34-.28,2.25,2.25,0,0,0,.17-.37c.11.18.24.36.37.55l.4.53c.22.28.4.53.55.76a2.33,2.33,0,0,1,.32.73,4.5,4.5,0,0,1,.11.85c0,.31,0,.64,0,1A6.88,6.88,0,0,1,15.91,76.57Z"/><path class="cls-1" d="M56.36,71.94c-.11-.27-.22-.52-.34-.76a7,7,0,0,0-.4-.66l-.46-.64a6.49,6.49,0,0,0-1.72-1.61,3.9,3.9,0,0,0-2.11-.59,1.61,1.61,0,0,0-1.42.63,3.32,3.32,0,0,0-.91.19,3.26,3.26,0,0,0-.62.29,11.18,11.18,0,0,0-2,1.87A10.58,10.58,0,0,0,45,72.71a9.28,9.28,0,0,0-.73,2.07,9,9,0,0,0-.23,1.94,8.08,8.08,0,0,0,.22,2A6.43,6.43,0,0,0,45,80.5a5,5,0,0,0,2.79,2.24,6.58,6.58,0,0,0,2.08.31A6.29,6.29,0,0,0,52,82.73a4.83,4.83,0,0,0,1.57-.9,9.84,9.84,0,0,0,2.84-4.16,8.93,8.93,0,0,0,.48-2.39,8,8,0,0,0-.21-2.41A7,7,0,0,0,56.36,71.94Zm-2.58,4.63A6.83,6.83,0,0,1,53,78.44a5.09,5.09,0,0,1-1.4,1.45,3.41,3.41,0,0,1-2,.57,3.2,3.2,0,0,1-1.08-.17,2.78,2.78,0,0,1-.83-.48,2.49,2.49,0,0,1-.59-.74,3.7,3.7,0,0,1-.35-.92,5,5,0,0,1-.11-.59,4.65,4.65,0,0,1,0-.65,3.88,3.88,0,0,1,.13-1,8.8,8.8,0,0,1,.35-1.1,7.85,7.85,0,0,1,1.21-2.1,5.24,5.24,0,0,1,.79-.81A3.12,3.12,0,0,1,50,71.4a10.36,10.36,0,0,0,1.17-.18,2.85,2.85,0,0,0,.68-.24.86.86,0,0,0,.34-.28,2.23,2.23,0,0,0,.17-.37c.11.18.24.36.37.55l.4.53c.22.28.4.53.55.76a2.33,2.33,0,0,1,.32.73,4.5,4.5,0,0,1,.11.85c0,.31,0,.64,0,1A6.87,6.87,0,0,1,53.78,76.57Z"/><path class="cls-1" d="M71.05,79.84,71,79.49c0-.35-.07-.8-.1-1.34s0-1.12,0-1.72l.12-15c0-.1,0-.2,0-.31a1,1,0,0,0,0-.28,1,1,0,0,0-.3-.49,2.27,2.27,0,0,0-.53-.38,3.31,3.31,0,0,0-.62-.25,2,2,0,0,0-.55-.09.67.67,0,0,0-.63.34,2,2,0,0,0-.23.85,5.47,5.47,0,0,0,0,1.1c0,.4.09.77.15,1.11l-.15,15.33c0,.19,0,.41,0,.67s0,.51,0,.76,0,.5.07.74a5.73,5.73,0,0,0,.1.59,2.38,2.38,0,0,0,.23.58,2.54,2.54,0,0,0,.43.58,2.09,2.09,0,0,0,.6.44,1.6,1.6,0,0,0,.74.17.78.78,0,0,0,.68-.31,1.66,1.66,0,0,0,.27-.77,4.18,4.18,0,0,0,0-1C71.18,80.47,71.13,80.15,71.05,79.84Z"/><path class="cls-1" d="M33.18,79.84l-.09-.36c0-.35-.07-.8-.1-1.34s0-1.12,0-1.72l.12-15c0-.1,0-.2,0-.31a1,1,0,0,0,0-.28,1,1,0,0,0-.3-.49,2.27,2.27,0,0,0-.53-.38,3.32,3.32,0,0,0-.62-.25,2,2,0,0,0-.55-.09.67.67,0,0,0-.63.34,2,2,0,0,0-.23.85,5.44,5.44,0,0,0,0,1.1c0,.4.09.77.15,1.11l-.15,15.33c0,.19,0,.41,0,.67s0,.51,0,.76,0,.5.07.74a5.76,5.76,0,0,0,.1.59,2.38,2.38,0,0,0,.23.58,2.53,2.53,0,0,0,.43.58,2.09,2.09,0,0,0,.6.44,1.6,1.6,0,0,0,.74.17.78.78,0,0,0,.68-.31,1.66,1.66,0,0,0,.27-.77,4.15,4.15,0,0,0,0-1C33.31,80.47,33.25,80.15,33.18,79.84Z"/><path class="cls-1" d="M183.93,77.12a2.25,2.25,0,0,0-.29-.7,2.32,2.32,0,0,0-.47-.54,4.05,4.05,0,0,0-.65-.44c-.25-.13-.52-.27-.82-.41l-.79-.33-.93-.36L179,74c-.32-.12-.59-.24-.84-.36a2,2,0,0,1-.49-.28.71.71,0,0,1-.17-1,2.49,2.49,0,0,1,.44-.59,5.85,5.85,0,0,1,1.5-1.08,4.8,4.8,0,0,1,.85-.35,2.79,2.79,0,0,1,.77-.13,1,1,0,0,1,.51.14,4.71,4.71,0,0,1,.44.29,4.88,4.88,0,0,0,.47.29,1.27,1.27,0,0,0,.6.13.32.32,0,0,0,.31-.19,1.35,1.35,0,0,0,.14-.46,2.38,2.38,0,0,0,0-.54,2.66,2.66,0,0,0-.06-.43,1.6,1.6,0,0,0-.5-.86,2.63,2.63,0,0,0-.84-.49,4.26,4.26,0,0,0-1-.21c-.35,0-.68,0-1,0a3.62,3.62,0,0,0-.91.1,4.2,4.2,0,0,0-.8.29,4.29,4.29,0,0,0-.74.43c-.23.17-.48.36-.73.57a4.69,4.69,0,0,0-1,.75,6.21,6.21,0,0,0-.77.95,3.68,3.68,0,0,0-.46,1,1.75,1.75,0,0,0,0,.89,3.54,3.54,0,0,0,.14.45c.06.14.13.28.2.42a3.72,3.72,0,0,0,.58.88,4.67,4.67,0,0,0,.73.66,5.87,5.87,0,0,0,.82.5,7.56,7.56,0,0,0,.85.37l.56.21.89.33c.32.12.62.25.9.39a4.62,4.62,0,0,1,.73.44.91.91,0,0,1,.36.49,1.28,1.28,0,0,1,0,.32c0,.22-.15.43-.47.63a5.29,5.29,0,0,1-1.18.55,10.37,10.37,0,0,1-1.53.39,8.43,8.43,0,0,1-1.53.15,2.17,2.17,0,0,1-.4,0l-.29-.07-.23-.07a.8.8,0,0,0-.22,0,.44.44,0,0,0-.27.11,1.44,1.44,0,0,0-.23.27,1.32,1.32,0,0,0-.14.35.75.75,0,0,0,0,.33,1.27,1.27,0,0,0,.39.6,3.69,3.69,0,0,0,.74.53,4.85,4.85,0,0,0,.89.37,3,3,0,0,0,.83.14,6.18,6.18,0,0,0,1.53-.21,9.86,9.86,0,0,0,1.59-.56,9.48,9.48,0,0,0,1.46-.82,6.12,6.12,0,0,0,1.13-1,1,1,0,0,0,.15-.31,4,4,0,0,0,.14-.53c0-.19.07-.39.1-.59a3,3,0,0,0,0-.53c0-.17,0-.32,0-.45A2.61,2.61,0,0,0,183.93,77.12Z"/><path class="cls-1" d="M117.94,75.13c0-.45.1-.89.14-1.34s.07-.89.08-1.35a2.47,2.47,0,0,0-.07-.67,2.36,2.36,0,0,0-.72-1.23,1.87,1.87,0,0,0-1.3-.49,6.26,6.26,0,0,0-2.22.38,7.3,7.3,0,0,0-1.9,1.06,9.64,9.64,0,0,0-1.64,1.6,15.72,15.72,0,0,0-1.4,2.06Q109,71.56,109,68t.09-6.77c0-.16,0-.3,0-.42a2.05,2.05,0,0,0,0-.25.74.74,0,0,0-.24-.39,1.17,1.17,0,0,0-.41-.21,2.55,2.55,0,0,0-.51-.09l-.51,0a1.14,1.14,0,0,0-.53.12,1.23,1.23,0,0,0-.36.3,1.06,1.06,0,0,0-.19.39,1.68,1.68,0,0,0-.06.39l-.15,19.79a4.2,4.2,0,0,0,.1,1,1.94,1.94,0,0,0,.46.9,1.24,1.24,0,0,0,.93.34,1.18,1.18,0,0,0,.76-.19,1.16,1.16,0,0,0,.34-.6,8.59,8.59,0,0,0,.21-1.1,11.43,11.43,0,0,1,.38-1.65c.25-.65.5-1.25.74-1.79a11.84,11.84,0,0,1,.82-1.54,10.23,10.23,0,0,1,1.05-1.37,12.52,12.52,0,0,1,1.43-1.33,2.44,2.44,0,0,1,.57-.3,1.92,1.92,0,0,1,.68-.13.5.5,0,0,1,.34.12.63.63,0,0,1,.19.33,1,1,0,0,1,0,.19q0,.8-.05,1.61c0,.53-.07,1.07-.12,1.6s-.1,1.06-.14,1.59-.08,1.05-.09,1.58c0,.31,0,.61,0,.9a4.8,4.8,0,0,0,.12.81,2.14,2.14,0,0,0,.62,1.11,2,2,0,0,0,1.37.4,1.13,1.13,0,0,0,.68-.19,1.09,1.09,0,0,0,.39-.49,1.82,1.82,0,0,0,.13-.71,4.43,4.43,0,0,0-.07-.84c-.06-.34-.13-.79-.21-1.35a11.87,11.87,0,0,1-.1-1.79,14.23,14.23,0,0,1,.07-1.43C117.84,76,117.88,75.58,117.94,75.13Z"/><path class="cls-1" d="M164.41,80.36c-.14-.57-.29-1.11-.45-1.62s-.3-1-.42-1.52a9.85,9.85,0,0,1-.18-1c0-.37-.08-.77-.11-1.19s0-.83,0-1.24,0-.8,0-1.18c0-.63,0-1.25,0-1.88a7.88,7.88,0,0,0-.18-1.58,3.77,3.77,0,0,0-.32-.91,1.82,1.82,0,0,0-.45-.56,1.53,1.53,0,0,0-.58-.29,3,3,0,0,0-.69-.08,1,1,0,0,0-.78.22,1.12,1.12,0,0,0-.17.78l.09,2c0,.29,0,.67,0,1.16s0,1,0,1.55-.07,1.1-.14,1.64a8.3,8.3,0,0,1-.32,1.45l-.23.67a10.72,10.72,0,0,1-.5,1.13,6.55,6.55,0,0,1-.76,1.2,4.94,4.94,0,0,1-1,1,2,2,0,0,1-1.18.39,1.11,1.11,0,0,1-.67-.22,2.69,2.69,0,0,1-.55-.56,4.45,4.45,0,0,1-.42-.73,3.94,3.94,0,0,1-.25-.71,4.11,4.11,0,0,1-.07-.93c0-.41,0-.93.07-1.58s.09-1.44.14-2.36.1-2,.14-3.26a1.94,1.94,0,0,0-.06-.61,1.81,1.81,0,0,0-.35-.72.82.82,0,0,0-.64-.31l-.49-.09-.45-.07a2.44,2.44,0,0,0-.4,0,.37.37,0,0,0-.15,0,.54.54,0,0,0-.19.15.76.76,0,0,0-.17.28,1,1,0,0,0-.07.41c0,.22,0,.5,0,.8s0,.67,0,1.1,0,.92,0,1.5,0,1.23,0,2c0,.24,0,.51,0,.82s0,.63,0,1,0,.71.05,1.07a6.75,6.75,0,0,0,1,3.06,6.11,6.11,0,0,0,1.58,1.72,4.44,4.44,0,0,0,.57.35,6.2,6.2,0,0,0,.71.34,6.77,6.77,0,0,0,.7.25,2.09,2.09,0,0,0,.52.1,3.08,3.08,0,0,0,1.69-.46,5.09,5.09,0,0,0,1.26-1.13,8.44,8.44,0,0,0,.94-1.45c.26-.52.51-1,.74-1.41l.12,0,.85,2.83a2.58,2.58,0,0,0,.16.41,1.16,1.16,0,0,0,.28.37,1.35,1.35,0,0,0,.46.26,2.19,2.19,0,0,0,.71.1c.42,0,.69-.09.82-.29a1.65,1.65,0,0,0,.21-.87,2.1,2.1,0,0,0,0-.44C164.52,80.84,164.47,80.62,164.41,80.36Z"/><path class="cls-1" d="M139.67,79.31l.07-7.89c0-.24,0-.48.07-.71a2.32,2.32,0,0,0-.06-.74,2.11,2.11,0,0,0-.21-.55,1.81,1.81,0,0,0-.37-.46,1.66,1.66,0,0,0-.56-.32,2.23,2.23,0,0,0-.78-.12,3,3,0,0,0-.45,0l-.54.11-.79-.09a7.46,7.46,0,0,0-.78,0,7.68,7.68,0,0,0-1.53.16,3.26,3.26,0,0,0-1.42.71,9.46,9.46,0,0,0-2.6,3.44,10.51,10.51,0,0,0-.89,4.38c0,.35,0,.66,0,.93a4.81,4.81,0,0,0,.12.78,3.7,3.7,0,0,0,.71,1.47,6.29,6.29,0,0,0,1.45,1.26,3.1,3.1,0,0,0,1.66.49,2.32,2.32,0,0,0,1.12-.31,6.89,6.89,0,0,0,1.1-.75c.36-.3.69-.62,1-.95s.62-.61.89-.85a9.77,9.77,0,0,1,.26,1.5,6.28,6.28,0,0,0,.14,1,1.6,1.6,0,0,0,.13.37.74.74,0,0,0,.26.27,1.45,1.45,0,0,0,.46.17,3.85,3.85,0,0,0,.76.06,1,1,0,0,0,.56-.13,1.07,1.07,0,0,0,.3-.32.9.9,0,0,0,.12-.39c0-.13,0-.25,0-.34a4.73,4.73,0,0,0-.06-1C139.79,80.13,139.73,79.74,139.67,79.31Zm-2.78-4.56a9.18,9.18,0,0,1-.7,1.47,11.83,11.83,0,0,1-.93,1.37,13.36,13.36,0,0,1-1,1.18,4,4,0,0,1-.87.67,2.18,2.18,0,0,1-1.11.28.65.65,0,0,1-.6-.32,2.47,2.47,0,0,1-.3-.73,4.62,4.62,0,0,1-.12-.78c0-.26,0-.45,0-.6a7.77,7.77,0,0,1,.19-1.53,8,8,0,0,1,.51-1.53,7.8,7.8,0,0,1,.79-1.39,6.07,6.07,0,0,1,1-1.13,5,5,0,0,1,1.25-.76,3.59,3.59,0,0,1,1.41-.29.46.46,0,0,1,.39.19,1.05,1.05,0,0,1,.18.38,7.18,7.18,0,0,1,.16,1,7.56,7.56,0,0,1,0,1A5,5,0,0,1,136.89,74.75Z"/><path class="cls-1" d="M94.24,71.94c-.1-.27-.22-.52-.34-.76a7,7,0,0,0-.4-.66L93,69.87a6.49,6.49,0,0,0-1.72-1.61,3.9,3.9,0,0,0-2.11-.59,1.61,1.61,0,0,0-1.42.63,3.31,3.31,0,0,0-.91.19,3.26,3.26,0,0,0-.62.29,11.18,11.18,0,0,0-2,1.87,10.56,10.56,0,0,0-1.34,2.05,9.27,9.27,0,0,0-.73,2.07,9,9,0,0,0-.23,1.94,8.08,8.08,0,0,0,.22,2,6.44,6.44,0,0,0,.7,1.77,5,5,0,0,0,2.79,2.24,6.58,6.58,0,0,0,2.08.31,6.29,6.29,0,0,0,2.11-.32,4.83,4.83,0,0,0,1.57-.9,9.84,9.84,0,0,0,2.84-4.16,8.93,8.93,0,0,0,.48-2.39,8,8,0,0,0-.21-2.41A7,7,0,0,0,94.24,71.94Zm-2.58,4.63a6.81,6.81,0,0,1-.83,1.86,5.09,5.09,0,0,1-1.4,1.45,3.41,3.41,0,0,1-2,.57,3.2,3.2,0,0,1-1.08-.17,2.78,2.78,0,0,1-.83-.48,2.5,2.5,0,0,1-.59-.74,3.7,3.7,0,0,1-.35-.92,5.05,5.05,0,0,1-.11-.59,4.59,4.59,0,0,1,0-.65,3.87,3.87,0,0,1,.13-1,8.85,8.85,0,0,1,.35-1.1,7.85,7.85,0,0,1,1.21-2.1,5.24,5.24,0,0,1,.79-.81,3.12,3.12,0,0,1,.88-.51A10.36,10.36,0,0,0,89,71.22a2.85,2.85,0,0,0,.68-.24.86.86,0,0,0,.34-.28,2.26,2.26,0,0,0,.17-.37c.11.18.24.36.37.55l.4.53c.22.28.4.53.55.76a2.33,2.33,0,0,1,.32.73,4.48,4.48,0,0,1,.11.85c0,.31,0,.64,0,1A6.86,6.86,0,0,1,91.65,76.57Z"/><circle class="cls-2" cx="21.13" cy="21.13" r="21.13"/><circle class="cls-2" cx="95.1" cy="21.13" r="21.13"/><circle class="cls-2" cx="169.07" cy="21.13" r="21.13"/><ellipse class="cls-2" cx="58.12" cy="21.13" rx="5.28" ry="21.13"/><ellipse class="cls-2" cx="132.09" cy="21.13" rx="5.28" ry="21.13"/></g></g></svg>