<svg xmlns="http://www.w3.org/2000/svg" viewBox="0 0 311.81 131.06"><defs><style>.cls-1{fill:#fff;}</style></defs><title>logo6</title><g id="Слой_2" data-name="Слой 2"><g id="Слой_1-2" data-name="Слой 1"><path class="cls-1" d="M98.07,78a17.33,17.33,0,0,1-28.24-8.66h42.4A26,26,0,1,0,109.12,78ZM69.84,60.63h0a17.3,17.3,0,0,1,33.51,0h0c.06.22.1.45.15.67,0-.23-.11-.45-.17-.67H69.86c-.06.22-.12.44-.17.67C69.73,61.08,69.78,60.85,69.84,60.63Z"/><path class="cls-1" d="M311.45,69.29a26.29,26.29,0,0,0,0-8.66H269A17.33,17.33,0,0,1,297.29,52h11A26,26,0,0,0,260.2,69.29h42.4A17.33,17.33,0,0,1,274.37,78H263.32a26,26,0,0,0,48.13-8.66Z"/><path class="cls-1" d="M43.31,45.59A26,26,0,0,0,0,65v26H8.66V65a17.32,17.32,0,1,1,34.65,0v26H52V65A25.92,25.92,0,0,0,43.31,45.59Z"/><path class="cls-1" d="M147.24,39a26,26,0,1,0,26,26A26,26,0,0,0,147.24,39Zm0,43.31A17.32,17.32,0,1,1,164.57,65,17.32,17.32,0,0,1,147.24,82.28Z"/><path class="cls-1" d="M233.86,65a26,26,0,0,0-43.31-19.37V30.31h-8.66V65a26,26,0,0,0,52,0Zm-43.31,0a17.32,17.32,0,1,1,17.32,17.32A17.32,17.32,0,0,1,190.55,65Z"/><rect class="cls-1" x="242.52" y="38.98" width="8.66" height="51.97"/><path class="cls-1" d="M242.66,17a14.71,14.71,0,0,0-.15,2.06V30.33h11.26a14.65,14.65,0,0,0,8.66-2.85,15.21,15.21,0,0,0,2.06-1.82,15,15,0,0,0,2.27-3.17q.3-.57.56-1.16A14.6,14.6,0,0,0,268.43,17q.07-.7.07-1.42V4.33H257.26q-.72,0-1.43.07a14.61,14.61,0,0,0-4.33,1.11q-.59.25-1.16.56a14.87,14.87,0,0,0-3.17,2.28l-.33.32h8.66v8.66h-8.66V8.66a14.92,14.92,0,0,0-1.49,1.73A14.67,14.67,0,0,0,242.66,17Z"/><polygon class="cls-1" points="240.79 8.66 242.84 8.66 245.12 8.66 246.85 8.66 246.85 8.34 246.85 6.06 246.85 4 246.85 1.73 246.85 0 245.12 0 242.84 0 240.79 0 238.51 0 238.19 0 238.19 1.73 238.19 4 238.19 6.06 238.19 8.34 238.19 8.66 238.51 8.66 240.79 8.66"/><rect class="cls-1" y="106.57" width="1.49" height="19.12"/><path class="cls-1" d="M10.48,112a5.17,5.17,0,0,0-2.91.89,6,6,0,0,0-2.1,2.45,7.93,7.93,0,0,0-.75,3.5v.54a7.35,7.35,0,0,0,.77,3.39,5.77,5.77,0,0,0,2.16,2.36,5.85,5.85,0,0,0,3.11.85,5.44,5.44,0,0,0,4.77-2.38l-.93-.71a4.67,4.67,0,0,1-1.66,1.39,4.85,4.85,0,0,1-2.11.44,4.18,4.18,0,0,1-3.31-1.52,5.64,5.64,0,0,1-1.31-3.82v-.29h9.61v-.83a6.79,6.79,0,0,0-1.44-4.58A4.87,4.87,0,0,0,10.48,112Zm3.85,5.81H6.25a5.69,5.69,0,0,1,1.4-3.31,3.72,3.72,0,0,1,2.83-1.23,3.43,3.43,0,0,1,2.74,1.22,4.94,4.94,0,0,1,1.11,3.16Z"/><path class="cls-1" d="M28.4,116.25a4,4,0,0,0-1.34-3.14A5.25,5.25,0,0,0,23.51,112a5.75,5.75,0,0,0-3.67,1.18,3.46,3.46,0,0,0-1.49,2.78h1.49a2.37,2.37,0,0,1,1-1.92,4.06,4.06,0,0,1,2.58-.8,3.68,3.68,0,0,1,2.6.83,3,3,0,0,1,.89,2.27v1.53h-2.7A7.86,7.86,0,0,0,19.65,119,3.6,3.6,0,0,0,18,122.12a3.53,3.53,0,0,0,1.2,2.74,4.52,4.52,0,0,0,3.14,1.08,6.12,6.12,0,0,0,2.57-.55,5.19,5.19,0,0,0,2-1.58,7,7,0,0,0,.29,1.88h1.59v-.15a7.9,7.9,0,0,1-.41-2.93ZM26.92,122a4.24,4.24,0,0,1-1.71,1.93,5,5,0,0,1-2.67.72,3.17,3.17,0,0,1-2.19-.75,2.41,2.41,0,0,1-.84-1.88,2.45,2.45,0,0,1,1.26-2.17,6.67,6.67,0,0,1,3.49-.82h2.66Z"/><path class="cls-1" d="M33.85,114.37l0-2.14H32.37V125.7h1.48v-9.25a4.26,4.26,0,0,1,1.38-2.26,3.64,3.64,0,0,1,2.36-.78,5.61,5.61,0,0,1,1,.09l0-1.36a2.46,2.46,0,0,0-1-.16A4,4,0,0,0,33.85,114.37Z"/><path class="cls-1" d="M46.81,112a4.92,4.92,0,0,0-2.5.65,5.36,5.36,0,0,0-1.89,1.9l0-2.3H40.95V125.7h1.48v-9.23A5.07,5.07,0,0,1,44,114.14a3.77,3.77,0,0,1,2.45-.87,3,3,0,0,1,2.41.88,4.12,4.12,0,0,1,.77,2.69v8.85h1.48v-8.84A5.5,5.5,0,0,0,50,113.2,4,4,0,0,0,46.81,112Z"/><rect class="cls-1" x="55.13" y="112.22" width="1.49" height="13.47"/><path class="cls-1" d="M55.89,107.33a1,1,0,0,0-.75.29,1,1,0,0,0-.27.71,1,1,0,0,0,1,1,1,1,0,0,0,.75-.29,1,1,0,0,0,.28-.71,1,1,0,0,0-.28-.71A1,1,0,0,0,55.89,107.33Z"/><path class="cls-1" d="M66.53,112a4.92,4.92,0,0,0-2.5.65,5.36,5.36,0,0,0-1.89,1.9l0-2.3H60.67V125.7h1.48v-9.23a5.07,5.07,0,0,1,1.57-2.33,3.77,3.77,0,0,1,2.45-.87,3,3,0,0,1,2.41.88,4.12,4.12,0,0,1,.77,2.69v8.85h1.48v-8.84a5.5,5.5,0,0,0-1.07-3.66A4,4,0,0,0,66.53,112Z"/><path class="cls-1" d="M83.46,114.17A4.68,4.68,0,0,0,79.28,112a4.52,4.52,0,0,0-3.8,1.85,8.11,8.11,0,0,0-1.4,5v.2a8.14,8.14,0,0,0,1.42,5,4.49,4.49,0,0,0,3.76,1.87,4.81,4.81,0,0,0,4.17-2v1.69a4.39,4.39,0,0,1-1.08,3.06,3.83,3.83,0,0,1-2.91,1.1,4.72,4.72,0,0,1-3.76-1.94l-.83.9a5.21,5.21,0,0,0,2,1.67,6,6,0,0,0,2.68.63,5.21,5.21,0,0,0,3.95-1.52,5.7,5.7,0,0,0,1.46-4.12v-13.2H83.54Zm0,8a4,4,0,0,1-3.9,2.46,3.34,3.34,0,0,1-2.91-1.49,7,7,0,0,1-1-4.07,7.5,7.5,0,0,1,1-4.35,3.38,3.38,0,0,1,2.93-1.48,4.06,4.06,0,0,1,2.37.68,4.25,4.25,0,0,1,1.51,2Z"/><path class="cls-1" d="M89.74,123.75a1,1,0,0,0-.78.31,1.05,1.05,0,0,0-.28.74,1,1,0,0,0,.28.72,1.05,1.05,0,0,0,.78.28,1.08,1.08,0,0,0,.78-.28,1,1,0,0,0,.29-.72,1,1,0,0,0-.29-.74A1,1,0,0,0,89.74,123.75Z"/><path class="cls-1" d="M109.15,114.7a4.06,4.06,0,0,1,5.75-.49,3.66,3.66,0,0,1,1.14,2.55h1.43a4.81,4.81,0,0,0-1.54-3.47,5.2,5.2,0,0,0-3.65-1.32,5.52,5.52,0,0,0-3,.83,5.37,5.37,0,0,0-2,2.37,8.41,8.41,0,0,0-.7,3.52v.45a7.45,7.45,0,0,0,1.55,5,5.2,5.2,0,0,0,4.2,1.84,5.7,5.7,0,0,0,2.52-.57,4.83,4.83,0,0,0,1.89-1.59,4.22,4.22,0,0,0,.77-2.25H116a3.09,3.09,0,0,1-1.14,2.27,3.94,3.94,0,0,1-2.61.88,3.74,3.74,0,0,1-3.14-1.44,6.45,6.45,0,0,1-1.11-4v-.44A6.59,6.59,0,0,1,109.15,114.7Z"/><path class="cls-1" d="M125.63,112a5.66,5.66,0,0,0-5.25,3.29,7.93,7.93,0,0,0-.75,3.5v.3a7.25,7.25,0,0,0,1.67,5,5.55,5.55,0,0,0,4.35,1.89,5.82,5.82,0,0,0,3.12-.85,5.62,5.62,0,0,0,2.12-2.41,8,8,0,0,0,.75-3.52v-.31a7.26,7.26,0,0,0-1.67-5A5.54,5.54,0,0,0,125.63,112Zm4.54,7.07a6.31,6.31,0,0,1-1.25,4.09,4.23,4.23,0,0,1-6.55,0,6.11,6.11,0,0,1-1.25-4v-.27a6.32,6.32,0,0,1,1.26-4.09,4,4,0,0,1,3.25-1.56,4.11,4.11,0,0,1,2.37.7,4.6,4.6,0,0,1,1.61,2,6.86,6.86,0,0,1,.57,2.83Z"/><path class="cls-1" d="M143.49,114.13a4.68,4.68,0,0,0-4.16-2.15,4.51,4.51,0,0,0-3.8,1.86,8.12,8.12,0,0,0-1.4,5V119a8.16,8.16,0,0,0,1.43,5.06,4.49,4.49,0,0,0,3.75,1.87,4.81,4.81,0,0,0,4.21-2l.06,1.79H145V106.57h-1.48Zm0,8.09a4,4,0,0,1-3.91,2.43,3.34,3.34,0,0,1-2.91-1.49,7,7,0,0,1-1-4.07,7.5,7.5,0,0,1,1-4.35,3.38,3.38,0,0,1,2.93-1.48,4,4,0,0,1,3.88,2.63Z"/><path class="cls-1" d="M149.83,107.33a1,1,0,0,0-.75.29,1,1,0,0,0-.27.71,1,1,0,0,0,1,1,1,1,0,0,0,.75-.29,1,1,0,0,0,.28-.71,1,1,0,0,0-.28-.71A1,1,0,0,0,149.83,107.33Z"/><rect class="cls-1" x="149.07" y="112.22" width="1.49" height="13.47"/><path class="cls-1" d="M160.47,112a4.91,4.91,0,0,0-2.5.65,5.35,5.35,0,0,0-1.89,1.9l-.05-2.3h-1.42V125.7h1.48v-9.23a5.06,5.06,0,0,1,1.58-2.33,3.76,3.76,0,0,1,2.45-.87,3,3,0,0,1,2.41.88,4.11,4.11,0,0,1,.77,2.69v8.85h1.48v-8.84a5.5,5.5,0,0,0-1.07-3.66A4,4,0,0,0,160.47,112Z"/><path class="cls-1" d="M177.41,114.17a4.68,4.68,0,0,0-4.18-2.19,4.52,4.52,0,0,0-3.8,1.85,8.11,8.11,0,0,0-1.4,5v.2a8.14,8.14,0,0,0,1.42,5,4.49,4.49,0,0,0,3.76,1.87,4.81,4.81,0,0,0,4.17-2v1.69a4.39,4.39,0,0,1-1.08,3.06,3.82,3.82,0,0,1-2.91,1.1,4.72,4.72,0,0,1-3.76-1.94l-.83.9a5.21,5.21,0,0,0,2,1.67,6,6,0,0,0,2.68.63,5.21,5.21,0,0,0,3.95-1.52,5.71,5.71,0,0,0,1.46-4.12v-13.2h-1.39Zm0,8a4,4,0,0,1-3.9,2.46,3.34,3.34,0,0,1-2.91-1.49,7,7,0,0,1-1-4.07,7.5,7.5,0,0,1,1-4.35,3.38,3.38,0,0,1,2.93-1.48,4.06,4.06,0,0,1,2.37.68,4.25,4.25,0,0,1,1.51,2Z"/><path class="cls-1" d="M183.68,123.75a1,1,0,0,0-.78.31,1.06,1.06,0,0,0-.28.74,1,1,0,0,0,.28.72,1.05,1.05,0,0,0,.78.28,1.07,1.07,0,0,0,.78-.28,1,1,0,0,0,.29-.72,1,1,0,0,0-.29-.74A1,1,0,0,0,183.68,123.75Z"/><path class="cls-1" d="M215.66,112a5.34,5.34,0,0,0-2.66.68,5,5,0,0,0-1.93,1.94q-.86-2.61-4-2.61a5.12,5.12,0,0,0-2.49.61,5,5,0,0,0-1.87,1.83l0-2.19h-1.43V125.7h1.49v-9.24a4.71,4.71,0,0,1,1.49-2.38,3.76,3.76,0,0,1,2.42-.8,3.25,3.25,0,0,1,2.47.85,3.7,3.7,0,0,1,.82,2.58v9h1.49v-8.91a3.67,3.67,0,0,1,1.23-2.47,4,4,0,0,1,2.71-1,3.17,3.17,0,0,1,2.5.87,4,4,0,0,1,.78,2.68v8.88h1.49v-9Q220,112,215.66,112Z"/><path class="cls-1" d="M228.79,112a5.17,5.17,0,0,0-2.91.89,6,6,0,0,0-2.1,2.45,7.91,7.91,0,0,0-.75,3.5v.54a7.35,7.35,0,0,0,.77,3.39A5.77,5.77,0,0,0,226,125.1a5.85,5.85,0,0,0,3.11.85,5.44,5.44,0,0,0,4.77-2.38l-.93-.71a4.67,4.67,0,0,1-1.66,1.39,4.85,4.85,0,0,1-2.11.44,4.18,4.18,0,0,1-3.31-1.52,5.64,5.64,0,0,1-1.31-3.82v-.29h9.61v-.83a6.8,6.8,0,0,0-1.44-4.58A4.87,4.87,0,0,0,228.79,112Zm3.85,5.81h-8.08a5.69,5.69,0,0,1,1.4-3.31,3.72,3.72,0,0,1,2.83-1.23,3.43,3.43,0,0,1,2.74,1.22,4.94,4.94,0,0,1,1.11,3.16Z"/><path class="cls-1" d="M242.88,112a4.92,4.92,0,0,0-2.5.65,5.35,5.35,0,0,0-1.89,1.9l0-2.3H237V125.7h1.48v-9.23a5.07,5.07,0,0,1,1.58-2.33,3.76,3.76,0,0,1,2.45-.87,3,3,0,0,1,2.41.88,4.11,4.11,0,0,1,.77,2.69v8.85h1.48v-8.84a5.51,5.51,0,0,0-1.07-3.66A4,4,0,0,0,242.88,112Z"/><path class="cls-1" d="M255.1,124.65a1.57,1.57,0,0,1-1.35-.55,2.82,2.82,0,0,1-.4-1.67v-9h2.79v-1.22h-2.79v-3.45h-1.49v3.45h-2.48v1.22h2.48v9a4.19,4.19,0,0,0,.7,2.62,2.66,2.66,0,0,0,2.23.89,4.88,4.88,0,0,0,1.59-.21l-.06-1.21A9.25,9.25,0,0,1,255.1,124.65Z"/><path class="cls-1" d="M264.15,112a5.66,5.66,0,0,0-5.25,3.29,7.91,7.91,0,0,0-.75,3.5v.3a7.25,7.25,0,0,0,1.67,5,5.55,5.55,0,0,0,4.35,1.89,5.82,5.82,0,0,0,3.13-.85,5.63,5.63,0,0,0,2.12-2.41,8,8,0,0,0,.75-3.52v-.31a7.26,7.26,0,0,0-1.67-5A5.54,5.54,0,0,0,264.15,112Zm4.54,7.07a6.31,6.31,0,0,1-1.25,4.09,4.23,4.23,0,0,1-6.55,0,6.11,6.11,0,0,1-1.25-4v-.27a6.32,6.32,0,0,1,1.26-4.09,4,4,0,0,1,3.25-1.56,4.1,4.1,0,0,1,2.37.7,4.6,4.6,0,0,1,1.61,2,6.85,6.85,0,0,1,.57,2.83Z"/><path class="cls-1" d="M274.73,114.37l0-2.14h-1.46V125.7h1.48v-9.25a4.26,4.26,0,0,1,1.38-2.26,3.64,3.64,0,0,1,2.36-.78,5.61,5.61,0,0,1,1,.09l0-1.36a2.46,2.46,0,0,0-1-.16A4,4,0,0,0,274.73,114.37Z"/><path class="cls-1" d="M282.76,107.33a1,1,0,0,0-.75.29,1,1,0,0,0-.27.71,1,1,0,0,0,1,1,1,1,0,0,0,.75-.29,1,1,0,0,0,.28-.71,1,1,0,0,0-1-1Z"/><rect class="cls-1" x="282" y="112.22" width="1.49" height="13.47"/><path class="cls-1" d="M293.4,112a4.92,4.92,0,0,0-2.5.65,5.35,5.35,0,0,0-1.89,1.9l0-2.3h-1.42V125.7H289v-9.23a5.07,5.07,0,0,1,1.58-2.33,3.76,3.76,0,0,1,2.45-.87,3,3,0,0,1,2.41.88,4.11,4.11,0,0,1,.77,2.69v8.85h1.48v-8.84a5.51,5.51,0,0,0-1.07-3.66A4,4,0,0,0,293.4,112Z"/><path class="cls-1" d="M310.34,114.17a4.68,4.68,0,0,0-4.18-2.19,4.52,4.52,0,0,0-3.8,1.85,8.11,8.11,0,0,0-1.4,5v.2a8.14,8.14,0,0,0,1.42,5,4.49,4.49,0,0,0,3.76,1.87,4.81,4.81,0,0,0,4.17-2v1.69a4.39,4.39,0,0,1-1.08,3.06,3.82,3.82,0,0,1-2.91,1.1,4.72,4.72,0,0,1-3.76-1.94l-.83.9a5.21,5.21,0,0,0,2,1.67,6,6,0,0,0,2.68.63,5.21,5.21,0,0,0,3.95-1.52,5.71,5.71,0,0,0,1.46-4.12v-13.2h-1.39Zm0,8a4,4,0,0,1-3.9,2.46,3.34,3.34,0,0,1-2.91-1.49,7,7,0,0,1-1-4.07,7.5,7.5,0,0,1,1-4.35,3.38,3.38,0,0,1,2.93-1.48,4.06,4.06,0,0,1,2.37.68,4.25,4.25,0,0,1,1.51,2Z"/></g></g></svg>