<svg xmlns="http://www.w3.org/2000/svg" viewBox="0 0 589.12 381.82"><defs><style>.cls-1{fill:#fff;}</style></defs><title>mainImg</title><g id="Слой_2" data-name="Слой 2"><g id="Слой_1-2" data-name="Слой 1"><path class="cls-1" d="M427.79,211.85V373.17H589.12V211.85ZM583.55,367.61H433.36V217.41h150.2Z"/><path class="cls-1" d="M493.54,360.95c15.66,0,24.64-9.05,24.64-24.83V283.37H498v52.55c0,6-2,6.42-5.06,6.42-3.22,0-4.6-1.86-7-6.11l-1.41-2.5-16.52,10,1.07,2.27C473.63,355.63,482.32,360.95,493.54,360.95Zm-11-19.52c2.08,3.3,5,6.47,10.39,6.47,7.15,0,10.62-3.92,10.62-12v-47h9.07v47.19c0,15.93-10.37,19.27-19.07,19.27-9.93,0-15.34-4.8-18.26-9.58Z"/><path class="cls-1" d="M549.64,342.42c-5.28,0-8.78-2.19-12.07-7.56l-1.42-2.31-16.51,9.59,1.18,2.34C526.14,355,536.76,361,550,361c16.42,0,27-9.1,27-23.18,0-13.73-8.09-20-21.15-25.55l-3.64-1.56c-6.37-2.76-7.33-3.88-7.33-6.33,0-2.16,1.62-3.49,4.23-3.49s4.73.79,7,4.85l1.44,2.59L573.67,298l-1.3-2.29c-5.09-9-12.47-13.13-23.23-13.13-14.26,0-24.22,9.09-24.22,22.12,0,14.46,9.74,20.56,19.26,24.61l3.64,1.56c6.8,3,9,4.18,9,7.17C556.8,340.64,553.92,342.42,549.64,342.42Zm.38-16.7-3.66-1.58c-11.58-4.93-15.89-10.21-15.89-19.5,0-9.9,7.5-16.55,18.66-16.55,7.82,0,13,2.44,17,8.09l-6.74,4.33a11.93,11.93,0,0,0-10.26-5.22c-5.67,0-9.79,3.81-9.79,9.06,0,6.32,4.43,8.73,10.69,11.45l3.65,1.56c11.79,5.05,17.77,9.6,17.77,20.44,0,13-11.09,17.62-21.47,17.62-10.19,0-18.21-3.94-22.89-11.17l7.25-4.21a18,18,0,0,0,15.3,8c7.49,0,12.72-4.11,12.72-10C562.37,331.11,556.93,328.73,550,325.72Z"/><path class="cls-1" d="M360.06,259.24A13.76,13.76,0,0,0,346.31,273v51.2a13.75,13.75,0,0,0,27.5,0V273A13.77,13.77,0,0,0,360.06,259.24Zm8.19,65a8.19,8.19,0,0,1-16.38,0V273a8.19,8.19,0,0,1,16.38,0Z"/><path class="cls-1" d="M251.22,335.15a10.11,10.11,0,0,0,10.1,10.09h4.53v22.82a13.75,13.75,0,0,0,27.5,0V345.25h9.07v22.82a13.75,13.75,0,0,0,27.5,0V345.25h4.53a10.1,10.1,0,0,0,10.09-10.09V259.24H251.22Zm5.56-70.36H339v70.36a4.53,4.53,0,0,1-4.53,4.53H324.37v28.38a8.19,8.19,0,0,1-16.38,0V339.68H287.79v28.38a8.19,8.19,0,0,1-16.38,0V339.68H261.32a4.54,4.54,0,0,1-4.54-4.53Z"/><path class="cls-1" d="M327.9,219l7.28-7.28a6.45,6.45,0,1,0-9.13-9.13l-9.43,9.44a46.25,46.25,0,0,0-37.61,0l-9.51-9.44a6.45,6.45,0,1,0-9.13,9.13l7.37,7.37a46.14,46.14,0,0,0-16.53,35.57v2.78h93.33V254.7A46.7,46.7,0,0,0,327.9,219Zm-71,32.87a40.71,40.71,0,0,1,16.7-30.3l2.6-1.92-11.87-11.87a.89.89,0,1,1,1.27-1.25l12.32,12.24,1.79-.9a40.64,40.64,0,0,1,36.27,0l1.8.91L330,206.57a.89.89,0,1,1,1.26,1.26l-11.81,11.81,2.63,1.91a41.15,41.15,0,0,1,16.82,30.37Z"/><path class="cls-1" d="M235.72,259.24A13.76,13.76,0,0,0,222,273v51.2a13.75,13.75,0,0,0,27.5,0V273A13.77,13.77,0,0,0,235.72,259.24Zm8.19,65a8.19,8.19,0,0,1-16.38,0V273a8.19,8.19,0,0,1,16.38,0Z"/><path class="cls-1" d="M147.57,202.42H24.33A24.33,24.33,0,0,0,0,226.75V314.8a24.33,24.33,0,0,0,24.33,24.33H147.57A24.33,24.33,0,0,0,171.9,314.8V226.75a24.33,24.33,0,0,0-24.33-24.33ZM166.34,314.8a18.77,18.77,0,0,1-18.77,18.77H24.33A18.77,18.77,0,0,1,5.56,314.8V226.75A18.77,18.77,0,0,1,24.33,208H147.57a18.77,18.77,0,0,1,18.77,18.77Z"/><polygon class="cls-1" points="60.08 246.85 34.21 272.73 60.08 298.6 64.01 294.67 42.07 272.73 64.01 250.79 60.08 246.85"/><polygon class="cls-1" points="107.89 250.79 129.83 272.73 107.89 294.67 111.83 298.6 137.7 272.73 111.83 246.85 107.89 250.79"/><rect class="cls-1" x="59.16" y="269.94" width="53.59" height="5.57" transform="translate(-196.14 225.91) rotate(-63.09)"/><path class="cls-1" d="M127.24,352.16H44.66a15.92,15.92,0,0,0-15.92,15.92v5.08H143.17v-5.08a15.92,15.92,0,0,0-15.92-15.92ZM34.31,367.61a10.36,10.36,0,0,1,10.35-9.88h82.58a10.36,10.36,0,0,1,10.35,9.88Z"/><path class="cls-1" d="M146.7,213.42H25.21a15,15,0,0,0-15,15v84.74a15,15,0,0,0,15,15H146.7a15,15,0,0,0,15-15V228.41a15,15,0,0,0-15-15Zm9.43,99.72a9.42,9.42,0,0,1-9.43,9.42H25.21a9.42,9.42,0,0,1-9.43-9.42V228.41A9.42,9.42,0,0,1,25.21,219H146.7a9.42,9.42,0,0,1,9.43,9.42Z"/><path class="cls-1" d="M489,76.18a42.39,42.39,0,0,0-42.34-42.34H347.75a42.34,42.34,0,1,0,35.79,64.9h27.31A42.31,42.31,0,0,0,489,76.18ZM414.83,94.56l-.8-1.39H380.37l-.8,1.39A36.76,36.76,0,1,1,347.75,39.4h98.89a36.78,36.78,0,1,1-31.81,55.16Z"/><path class="cls-1" d="M357.12,53.62H338.38V66.8H325.19V85.56h13.18V98.74h18.75V85.56h13.19V66.8H357.12Zm7.63,18.75V80H351.56V93.18h-7.62V80H330.75V72.37h13.18V59.18h7.62V72.37Z"/><path class="cls-1" d="M456,89.36a9.32,9.32,0,0,0-2.13-5.94,9.38,9.38,0,1,0,0-14.5,9.37,9.37,0,1,0-14.49,0,9.38,9.38,0,1,0,0,14.5A9.37,9.37,0,1,0,456,89.36Zm-9.38-17a9.33,9.33,0,0,0,5.94-2.13,9.36,9.36,0,0,0,0,11.88,9.35,9.35,0,0,0-11.88,0,9.36,9.36,0,0,0,0-11.88A9.33,9.33,0,0,0,446.64,72.37ZM433.46,80a3.81,3.81,0,1,1,3.81-3.81A3.82,3.82,0,0,1,433.46,80Zm9.38,9.37a3.81,3.81,0,1,1,3.81,3.81A3.81,3.81,0,0,1,442.84,89.36Z"/><path class="cls-1" d="M234,152.28,220.27,111,185.58,75.9l48-48L205.63,0l-48,48-48-48L81.75,27.92l12,12h0l15.93,15.93h0L129.73,75.9l-48,48,27.92,27.92,48-48,34,34,15,5.1-.15.15ZM101.61,39.92l20.06-20.06,8.06,8.06L109.67,48Zm-12-12L109.67,7.87l8.06,8.06L97.68,36Zm68,68-48,48L89.61,123.89l8.06-8.06,10,10,3.93-3.93-10-10,8.06-8.06,10,10,3.93-3.93-10-10,8.06-8.06,10,10,3.93-3.93-10-10,12-12-24-24,20.06-20.06,24,24,12-12,10,10,3.93-3.93-10-10,8.06-8.06,10,10L195.61,38l-10-10,8.06-8.06,10,10L207.6,26l-10-10,8.06-8.06,20.06,20.06-48,48,36,36-20.05,20.05Zm41.14,38.7L216.41,117l4,12.09-9.56,9.56Z"/></g></g></svg>